<svg width="533" height="334" xmlns="http://www.w3.org/2000/svg" version="1.1">

 <g>
  <title>Layer 1</title>
  <path id="svg_2" fill="#F7C313" d="m443,56c0.99,0 1.98,0 3,0c0.19835,10.89127 -0.58472,21.64699 -1.375,32.5c-0.9979,14.12064 -1.93305,28.23918 -2.6875,42.375c-0.83988,15.71883 -1.8489,31.4214 -2.9375,47.125c-1.32,-0.66 -2.64,-1.32 -4,-2c-2.30693,-2.29841 -4.5492,-4.66228 -6.75,-7.0625c-1.23879,-1.34449 -2.47758,-2.68898 -3.75391,-4.07422c-2.76038,-3.05031 -5.47968,-6.1378 -8.18359,-9.23828c-1.09313,-1.19625 -2.18625,-2.3925 -3.3125,-3.625c-0.99,-0.33 -1.98,-0.66 -3,-1c-0.66,1.32 -1.32,2.64 -2,4c-2.97575,3.68638 -5.97868,7.35088 -9,11c-1.63969,2.16563 -1.63969,2.16563 -3.3125,4.375c-4.06033,5.09262 -8.40454,9.81584 -12.85156,14.57031c-2.12105,2.28466 -4.18213,4.62525 -6.21094,6.99219c-10.89171,12.20623 -22.85336,22.87752 -35.625,33.0625c-1.06863,0.92941 -2.13727,1.85883 -3.23828,2.81641c-11.1743,9.45696 -23.21327,17.6818 -35.76172,25.18359c-1.91813,1.39219 -1.91813,1.39219 -3.875,2.8125c-1.03125,0.72188 -2.0625,1.44375 -3.125,2.1875c-2.31,0.99 -4.62,1.98 -7,3c-0.66,0.66 -1.32,1.32 -2,2c-3.33333,1.33333 -6.66667,2.66667 -10,4c-5.5663,2.72517 -11.08455,5.51562 -16.5625,8.41406c-10.68856,5.08321 -22.10325,8.25441 -33.4375,11.58594c-16.48181,4.29436 -33.05208,7.65996 -49.98047,9.55859c-15.67133,1.14917 -31.66788,1.123 -47.34375,-0.01953c-8.27264,-1.04873 -16.14311,-2.77677 -24.11328,-5.22656c-5.60467,-2.0141 -10.84224,-4.32114 -16.0625,-7.1875c-5.91897,-3.75627 -11.24177,-7.49776 -16.5,-12.125c-4.625,-4.6875 -4.625,-4.6875 -9,-10c-4.40843,-6.77237 -8.77615,-13.57112 -12,-21c0.495,-0.99 0.495,-0.99 1,-2c1.82531,2.28938 1.82531,2.28938 3.6875,4.625c3.06659,3.82212 6.17543,7.61051 9.3125,11.375c4.74691,3.75178 9.77619,6.95195 15,10c6.64466,3.16381 13.48771,5.51882 20.5,7.75c8.65061,1.96605 17.02094,3.05728 25.85937,3.54688c12.69534,0.29677 24.86748,-0.76541 37.39063,-2.67188c5.1093,-0.78801 10.16756,-1.6655 15.25,-2.625c2.475,-0.99 2.475,-0.99 5,-2c2.64,0 5.28,0 8,0c0,-0.66 0,-1.32 0,-2c1.485,-0.37125 2.97,-0.7425 4.5,-1.125c13.98216,-4.03331 27.35975,-9.6464 40.5,-15.875c2.84437,-1.47897 5.6786,-2.97768 8.5,-4.5c2.145,-1.155 4.29,-2.31 6.5,-3.5c0.66,0 1.32,0 2,0c0,-0.66 0,-1.32 0,-2c1.65,-0.33 3.3,-0.66 5,-1c0,-0.66 0,-1.32 0,-2c3.60279,-2.4308 7.27676,-4.75805 11,-7c2.475,-0.99 2.475,-0.99 5,-2c1.32,-1.32 2.64,-2.64 4,-4c3.61206,-2.74018 7.27987,-5.40845 11,-8c2.475,-0.99 2.475,-0.99 5,-2c0.33,-0.99 0.66,-1.98 1,-3c2.49591,-2.04526 4.99651,-4.08496 7.51562,-6.10156c14.18249,-11.79754 27.10422,-25.13663 39.10938,-39.1211c15.16045,-18.18002 15.16045,-18.18002 28.375,-37.77734c0,-1.32 0,-2.64 0,-4c-7.90984,-2.66197 -15.81258,-5.24743 -23.8125,-7.625c-3.55781,-1.17562 -3.55781,-1.17562 -7.1875,-2.375c-0.66,-0.99 -1.32,-1.98 -2,-3c2.78899,-1.50498 5.58127,-3.00385 8.375,-4.5c1.55461,-0.83531 3.10922,-1.67063 4.71094,-2.53125c1.93746,-0.97453 1.93746,-0.97453 3.91406,-1.96875c0.66,0 1.32,0 2,0c0,-0.66 0,-1.32 0,-2c1.22848,-0.53109 2.45695,-1.06219 3.72266,-1.60937c8.18079,-3.70589 16.1412,-7.84186 24.14843,-11.90625c1.69254,-0.81985 3.38508,-1.63969 5.12891,-2.48438c0.66,0 1.32,0 2,0c0,-0.66 0,-1.32 0,-2c1.58812,-0.70125 3.17625,-1.4025 4.8125,-2.125c5.88115,-2.73266 11.50198,-5.7615 17.1875,-8.875c2.31,-0.99 4.62,-1.98 7,-3c4.42117,-2.06589 8.82741,-4.16182 13.23437,-6.25781c3.76563,-1.74219 3.76563,-1.74219 6.76563,-2.74219c0,-0.66 0,-1.32 0,-2c0.66,-0.33 1.32,-0.66 2,-1z"/>
  <path id="svg_3" fill="#106BAB" d="m299.3125,29.46875c2.20688,0.17531 4.41375,0.35062 6.6875,0.53125c5.37891,1.85547 5.37891,1.85547 10,4c2.64423,0.94202 5.28997,1.87982 7.9375,2.8125c5.0805,1.90041 9.26035,3.88099 14,6.625c6.85608,4.82465 13.12824,9.62824 19.0625,15.5625c1.90827,2.28512 3.78197,4.59944 5.625,6.9375c0.94102,1.18465 1.88203,2.3693 2.85156,3.58984c2.52344,3.47266 2.52344,3.47266 5.52344,9.47266c-0.33,0.99 -0.66,1.98 -1,3c-5.875,3.25 -5.875,3.25 -12,6c-0.99,-0.33 -1.98,-0.66 -3,-1c-2.34276,-3.32672 -4.67423,-6.66139 -7,-10c-4.19975,-5.20345 -4.19975,-5.20345 -9,-10c-3.60368,-2.75119 -7.26263,-5.43337 -11,-8c-1.98,-1.485 -1.98,-1.485 -4,-3c-6.511,-2.77064 -12.91484,-4.97713 -19.75,-6.8125c-5.3796,-0.88114 -10.21889,-1.47675 -15.625,-1.625c-4.4294,0.08433 -8.54682,0.4236 -12.91016,1.19922c-5.7531,1.36927 -11.35683,3.11894 -16.96484,4.98828c-5.07874,2.29779 -5.07874,2.29779 -10.8125,6c-5.41455,3.87568 -10.23286,7.54536 -14.9375,12.25c-3.66634,4.47542 -6.95215,9.08233 -10,14c-2.54785,4.93645 -4.78623,9.8987 -7,15c-1.32,-0.33 -2.64,-0.66 -4,-1c-1.34063,-0.92812 -2.68125,-1.85625 -4.0625,-2.8125c-4.81059,-3.23914 -4.81059,-3.23914 -9.75,-5.5625c-2.04188,-0.53625 -4.08375,-1.0725 -6.1875,-1.625c-6.70627,-0.4825 -13.30076,-0.5968 -20,0c-4.7296,1.22901 -4.7296,1.22901 -9,3c-5.70164,3.10556 -5.70164,3.10556 -11,7c-1.85625,1.76344 -1.85625,1.76344 -3.75,3.5625c-2.80073,3.82408 -4.96164,7.42965 -7.125,11.625c-1.03125,2.24813 -2.0625,4.49625 -3.125,6.8125c-1.00259,5.01295 -1.31954,9.71026 -1.5625,14.8125c-0.12568,2.57748 -0.12568,2.57748 -0.25391,5.20703c-0.06058,1.31356 -0.12117,2.62711 -0.18359,3.98047c-2.04768,0.23783 -2.04768,0.23783 -4.13672,0.48047c-5.65074,0.71976 -11.25377,1.5268 -16.86328,2.51953c-7.02809,2.04763 -7.02809,2.04763 -13,5c-5.21532,3.05152 -10.03015,6.25274 -14.8125,9.9375c-3.24157,3.02345 -3.24157,3.02345 -6.125,6.4375c-3.53653,5.34088 -6.50417,10.77094 -9.29297,16.53516c-2.01288,4.43738 -2.01288,4.43738 -3.76953,10.71484c-1.10739,6.42573 -1.10739,6.42573 -1.4375,13.1875c0.32468,5.33401 0.80243,9.90171 1.9375,15.0625c1.19838,4.46234 2.63909,8.42562 4.58203,12.625c1.43171,2.80826 2.89778,5.59941 4.40625,8.36719c0.49887,1.03383 0.99774,2.06765 1.51172,3.13281c-0.33,0.66 -0.66,1.32 -1,2c-4.10403,-3.59679 -8.11565,-7.17406 -12,-11c-3.9375,-5 -3.9375,-5 -7,-10c-2.75,-5.25 -2.75,-5.25 -5,-11c-1.8125,-6.8125 -1.8125,-6.8125 -3,-14c-0.4375,-7.0625 -0.4375,-7.0625 0,-14c1.5625,-6.5625 1.5625,-6.5625 4,-13c3.25,-6.6875 3.25,-6.6875 7,-13c3.7218,-5.02148 7.63258,-9.60295 11.875,-14.1875c4.125,-3.8125 4.125,-3.8125 8.625,-7.3125c6.9254,-4.40707 13.99103,-8.1826 21.5,-11.5c6.25,-2 6.25,-2 11,-3c1.32,0 2.64,0 4,0c0,-2.64 0,-5.28 0,-8c2.05918,-6.53055 4.34433,-12.67141 7.375,-18.8125c2.96076,-4.72312 5.98271,-8.95774 9.625,-13.1875c4.95266,-4.37677 9.85607,-8.27498 15.4375,-11.8125c5.40083,-2.58944 10.83569,-4.44456 16.5625,-6.1875c5,-1 5,-1 8.78516,-1.20312c4.42233,-0.04847 8.79751,-0.02543 13.21484,0.20312c6.625,1.375 6.625,1.375 12,3c2.31,0.66 4.62,1.32 7,2c0.66,-1.65 1.32,-3.3 2,-5c3.96519,-5.31052 8.18466,-10.19943 12.6875,-15.0625c3.89603,-3.62101 7.51267,-6.69818 11.8125,-9.75c7.62711,-4.91362 15.17576,-8.61997 23.5,-12.1875c13.56312,-3.89106 26.22741,-4.47106 40.3125,-4.53125z"/>
  <path id="svg_4" fill="#0E6AAA" d="m452,149c1.98,0.99 1.98,0.99 4,2c3.1875,2.75 3.1875,2.75 7,7c4.25968,6.02785 8.01707,12.32455 11.75,18.6875c2.66093,6.28275 4.65442,12.47978 6.29688,19.10156c0.98285,5.37348 1.40403,10.43852 1.51562,15.89844c-0.13374,5.03002 -0.47967,9.80934 -1.29687,14.77344c-1.41802,6.10213 -3.40607,11.91862 -5.57813,17.78906c-2.91553,6.23787 -5.93294,11.96917 -9.6875,17.75c-5.10571,6.20907 -10.68475,11.77484 -16.5625,17.25c-6.23196,4.29791 -12.63327,7.52782 -19.46094,10.76953c-4.97656,1.98047 -4.97656,1.98047 -10.2099,3.58296c-6.76666,1.39751 -6.76666,1.39751 -10.61796,1.6665c-4.46677,0.09855 -8.92409,0.10219 -13.39186,0.07159c-2.53368,0.00065 -2.53368,0.00065 -5.11855,0.00132c-5.55142,-0.00208 -11.10254,-0.02537 -16.65392,-0.04893c-3.86155,-0.0056 -7.7231,-0.00987 -11.58465,-0.01286c-10.14004,-0.01143 -20.27994,-0.04088 -30.41992,-0.07412c-10.35653,-0.03074 -20.71308,-0.0444 -31.06964,-0.05951c-20.30345,-0.03212 -40.60679,-0.0833 -60.91016,-0.14648c0.495,-0.99 0.495,-0.99 1,-2c2.98904,-1.0323 5.9922,-2.02371 9,-3c4.13787,-1.65569 8.26236,-3.3451 12.375,-5.0625c2.11148,-0.87785 4.22297,-1.7557 6.39844,-2.66016c2.58715,-1.12728 2.58715,-1.12728 5.22656,-2.27734c0.99,-0.66 1.98,-1.32 3,-2c3.97219,-0.1992 7.95129,-0.26364 11.92847,-0.27124c3.79621,-0.01528 3.79621,-0.01528 7.66911,-0.03087c1.35988,-0.00094 2.71975,-0.00188 4.12084,-0.00285c4.25995,-0.00366 8.51968,-0.02038 12.77958,-0.04076c12.11496,-0.05543 24.22996,-0.08596 36.34502,-0.11058c7.40817,-0.01596 14.81619,-0.04628 22.22428,-0.08476c2.81413,-0.01159 5.62829,-0.01758 8.44244,-0.01768c17.559,0.11863 17.559,0.11863 34.9739,-1.79697c3.2256,-0.81393 3.2256,-0.81393 6.51636,-1.64429c5.92958,-2.58222 5.92958,-2.58222 11,-6c4.59219,-3.30638 8.80998,-6.83337 13.0625,-10.5625c4.26676,-4.57446 4.26676,-4.57446 8.125,-11c2.52142,-4.70963 4.66987,-9.4023 6.8125,-14.3125c1.24863,-3.80698 1.24863,-3.80698 2,-8.125c0.61055,-8.06137 0.59303,-15.93811 0,-24c-0.77344,-3.55781 -0.77344,-3.55781 -1.5625,-7.1875c-2.7597,-6.58082 -5.87533,-12.6291 -9.4375,-18.8125c-0.33,-0.33 -0.66,-0.66 -1,-1c-0.14484,-8.11115 -0.12952,-15.95217 1,-24z"/>
  <path id="svg_5" fill="#A7CFE2" d="m69,191c0.33,1.32 0.66,2.64 1,4c-0.28028,4.00407 -0.6092,8.0052 -1,12c-0.33,0 -0.66,0 -1,0c-0.33,3.63 -0.66,7.26 -1,11c-0.33,0 -0.66,0 -1,0c-0.14135,-4.66453 -0.11197,-9.33468 0,-14c0.88637,-4.358 1.85412,-8.70294 3,-13z"/>
 </g>
</svg>