<?xml version="1.0" encoding="UTF-8"?>
<!DOCTYPE svg PUBLIC "-//W3C//DTD SVG 1.1//EN" "http://www.w3.org/Graphics/SVG/1.1/DTD/svg11.dtd">
<svg xmlns="http://www.w3.org/2000/svg" version="1.1" width="256px" height="256px" style="shape-rendering:geometricPrecision; text-rendering:geometricPrecision; image-rendering:optimizeQuality; fill-rule:evenodd; clip-rule:evenodd" xmlns:xlink="http://www.w3.org/1999/xlink">
<g><path style="opacity:1" fill="#fdfdfd" d="M -0.5,-0.5 C 84.8333,-0.5 170.167,-0.5 255.5,-0.5C 255.5,84.8333 255.5,170.167 255.5,255.5C 170.167,255.5 84.8333,255.5 -0.5,255.5C -0.5,170.167 -0.5,84.8333 -0.5,-0.5 Z"/></g>
<g><path style="opacity:1" fill="#f6eca1" d="M 151.5,64.5 C 142.194,63.4459 132.861,63.2792 123.5,64C 122.956,64.7172 122.289,65.2172 121.5,65.5C 121.414,64.5041 121.748,63.6708 122.5,63C 131.167,62.3333 139.833,62.3333 148.5,63C 149.737,63.2321 150.737,63.7321 151.5,64.5 Z"/></g>
<g><path style="opacity:1" fill="#fbf8c9" d="M 166.5,71.5 C 168.606,72.7829 170.94,73.6162 173.5,74C 174.252,74.6708 174.586,75.5041 174.5,76.5C 172.811,75.0693 170.811,74.2359 168.5,74C 167.619,73.2917 166.953,72.4584 166.5,71.5 Z"/></g>
<g><path style="opacity:1" fill="#679cc5" d="M 190.5,87.5 C 197.655,86.3448 204.988,86.1782 212.5,87C 210.846,87.6077 209.179,88.1077 207.5,88.5C 202.025,87.5111 196.358,87.1778 190.5,87.5 Z"/></g>
<g><path style="opacity:1" fill="#377ec4" d="M 190.5,87.5 C 196.358,87.1778 202.025,87.5111 207.5,88.5C 202.222,90.0369 196.888,91.3702 191.5,92.5C 191.371,90.7839 191.038,89.1172 190.5,87.5 Z"/></g>
<g><path style="opacity:1" fill="#fefef9" d="M 113.5,89.5 C 113.5,90.1667 113.833,90.5 114.5,90.5C 114.666,98.1739 114.5,105.841 114,113.5C 110.183,109.866 108.016,105.533 107.5,100.5C 103.254,99.0729 100.587,96.0729 99.5,91.5C 99.8333,91.5 100.167,91.5 100.5,91.5C 104.686,90.0921 109.019,89.4255 113.5,89.5 Z"/></g>
<g><path style="opacity:1" fill="#eee292" d="M 132.5,67.5 C 132.414,68.4959 132.748,69.3292 133.5,70C 139.985,73.4272 146.651,75.9272 153.5,77.5C 157.562,79.1757 161.229,78.8424 164.5,76.5C 165.401,77.2905 166.068,78.2905 166.5,79.5C 162.833,79.5 159.167,79.5 155.5,79.5C 155.343,80.8734 155.51,82.2068 156,83.5C 158.416,86.6628 160.582,89.9961 162.5,93.5C 165.024,89.4601 166.69,85.1268 167.5,80.5C 168.995,80.9887 170.329,81.6554 171.5,82.5C 170.504,82.4142 169.671,82.7476 169,83.5C 167.816,87.5824 166.649,91.5824 165.5,95.5C 166.568,97.6718 167.068,100.005 167,102.5C 165.745,100.406 163.912,99.4062 161.5,99.5C 155.276,100.06 149.943,102.227 145.5,106C 146.997,107.662 148.663,109.162 150.5,110.5C 150.167,110.833 149.833,111.167 149.5,111.5C 147.275,109.89 144.941,108.557 142.5,107.5C 144.599,106.185 144.933,104.518 143.5,102.5C 148.917,100.96 154.251,99.127 159.5,97C 153.078,94.3038 146.578,91.8038 140,89.5C 138.5,89.6667 137.667,90.5 137.5,92C 139.455,95.3662 141.122,98.8662 142.5,102.5C 141.391,102.557 140.391,102.89 139.5,103.5C 138.84,99.6873 137.674,96.0207 136,92.5C 134.506,91.2528 133.006,91.2528 131.5,92.5C 127.74,99.6934 123.74,106.693 119.5,113.5C 118.5,113.5 117.5,113.5 116.5,113.5C 116.5,105.833 116.5,98.1667 116.5,90.5C 117.139,89.9032 117.472,89.0698 117.5,88C 117.316,86.6244 116.649,85.7911 115.5,85.5C 117.623,81.4206 119.623,77.2539 121.5,73C 121.164,71.9701 120.497,71.4701 119.5,71.5C 124.052,71.0475 128.385,69.7141 132.5,67.5 Z"/></g>
<g><path style="opacity:1" fill="#fefef9" d="M 129.5,88.5 C 130.167,88.5 130.5,88.8333 130.5,89.5C 126.88,97.4029 122.713,105.07 118,112.5C 117.264,104.465 117.431,96.4647 118.5,88.5C 122.167,88.5 125.833,88.5 129.5,88.5 Z"/></g>
<g><path style="opacity:1" fill="#fefef7" d="M 143.5,102.5 C 143.167,102.5 142.833,102.5 142.5,102.5C 141.122,98.8662 139.455,95.3662 137.5,92C 137.667,90.5 138.5,89.6667 140,89.5C 146.578,91.8038 153.078,94.3038 159.5,97C 154.251,99.127 148.917,100.96 143.5,102.5 Z"/></g>
<g><path style="opacity:1" fill="#6c99bb" d="M 224.5,92.5 C 224.5,92.1667 224.5,91.8333 224.5,91.5C 224.265,90.9033 223.765,90.5699 223,90.5C 215.727,92.6077 208.56,94.9411 201.5,97.5C 201.158,96.6618 200.492,96.3284 199.5,96.5C 211.046,91.7796 223.046,88.6129 235.5,87C 231.807,88.8466 228.14,90.6799 224.5,92.5 Z"/></g>
<g><path style="opacity:1" fill="#fefdf5" d="M 90.5,91.5 C 91.1667,91.5 91.8333,91.5 92.5,91.5C 92.8039,92.1499 93.1373,92.8165 93.5,93.5C 91.2738,96.6189 89.6072,99.9523 88.5,103.5C 82.7756,102.642 77.4423,100.642 72.5,97.5C 71.6143,96.675 71.281,95.675 71.5,94.5C 72.6049,93.3995 73.9382,92.7329 75.5,92.5C 80.4635,91.746 85.4635,91.4126 90.5,91.5 Z"/></g>
<g><path style="opacity:1" fill="#fefef7" d="M 139.5,103.5 C 134.699,107.627 129.366,111.127 123.5,114C 122.207,114.49 120.873,114.657 119.5,114.5C 119.5,114.167 119.5,113.833 119.5,113.5C 123.74,106.693 127.74,99.6934 131.5,92.5C 133.006,91.2528 134.506,91.2528 136,92.5C 137.674,96.0207 138.84,99.6873 139.5,103.5 Z"/></g>
<g><path style="opacity:1" fill="#f4d444" d="M 151.5,64.5 C 156.669,66.3004 161.669,68.6337 166.5,71.5C 166.953,72.4584 167.619,73.2917 168.5,74C 170.811,74.2359 172.811,75.0693 174.5,76.5C 174.918,79.4389 176.418,81.7722 179,83.5C 181.112,86.7271 182.945,90.0604 184.5,93.5C 184.5,94.5 184.5,95.5 184.5,96.5C 183.167,96.5 181.833,96.5 180.5,96.5C 178.513,91.1948 175.513,86.5282 171.5,82.5C 170.329,81.6554 168.995,80.9887 167.5,80.5C 167.5,79.8333 167.167,79.5 166.5,79.5C 166.068,78.2905 165.401,77.2905 164.5,76.5C 159.412,72.6884 153.745,70.0218 147.5,68.5C 144.814,67.0092 141.814,66.3425 138.5,66.5C 136.304,66.5046 134.304,66.838 132.5,67.5C 128.385,69.7141 124.052,71.0475 119.5,71.5C 115.052,73.2272 111.052,75.7272 107.5,79C 105.461,80.9263 103.794,83.093 102.5,85.5C 100.896,86.287 100.229,87.6203 100.5,89.5C 101.552,89.3505 102.552,89.5172 103.5,90C 102.263,90.2321 101.263,90.7321 100.5,91.5C 100.167,91.5 99.8333,91.5 99.5,91.5C 98.8333,92.1667 98.1667,92.8333 97.5,93.5C 96.8333,93.5 96.1667,93.5 95.5,93.5C 94.7777,92.4489 93.7777,91.7822 92.5,91.5C 91.8333,91.5 91.1667,91.5 90.5,91.5C 86.3537,90.353 82.0204,90.1864 77.5,91C 76.5842,91.2784 75.9175,91.7784 75.5,92.5C 73.9382,92.7329 72.6049,93.3995 71.5,94.5C 70.6908,96.0276 70.0241,97.6943 69.5,99.5C 69.1667,99.5 68.8333,99.5 68.5,99.5C 66.901,99.2322 65.5676,99.5655 64.5,100.5C 59.6847,105.773 58.0181,111.773 59.5,118.5C 55.6903,118.997 52.0237,119.997 48.5,121.5C 37.8774,124.489 30.5441,131.155 26.5,141.5C 24.6824,143.078 23.6824,142.578 23.5,140C 23.7728,138.467 24.1062,136.967 24.5,135.5C 28.1667,128.5 33.5,123.167 40.5,119.5C 45.1514,118.178 49.8181,116.845 54.5,115.5C 54.5,114.5 54.5,113.5 54.5,112.5C 54.6785,109.784 55.1785,107.117 56,104.5C 59.4116,100.837 61.9116,96.6706 63.5,92C 68.2195,91.2661 72.5529,89.5994 76.5,87C 83.1915,86.8309 89.8581,86.3309 96.5,85.5C 102.524,75.7951 110.858,69.1285 121.5,65.5C 122.289,65.2172 122.956,64.7172 123.5,64C 132.861,63.2792 142.194,63.4459 151.5,64.5 Z"/></g>
<g><path style="opacity:1" fill="#f5e992" d="M 90.5,91.5 C 85.4635,91.4126 80.4635,91.746 75.5,92.5C 75.9175,91.7784 76.5842,91.2784 77.5,91C 82.0204,90.1864 86.3537,90.353 90.5,91.5 Z"/></g>
<g><path style="opacity:1" fill="#f2e8a3" d="M 102.5,85.5 C 102.586,86.4959 102.252,87.3292 101.5,88C 105.524,88.4973 109.524,88.3307 113.5,87.5C 113.5,88.1667 113.5,88.8333 113.5,89.5C 109.019,89.4255 104.686,90.0921 100.5,91.5C 101.263,90.7321 102.263,90.2321 103.5,90C 102.552,89.5172 101.552,89.3505 100.5,89.5C 100.229,87.6203 100.896,86.287 102.5,85.5 Z"/></g>
<g><path style="opacity:1" fill="#f3d341" d="M 115.5,85.5 C 116.649,85.7911 117.316,86.6244 117.5,88C 117.472,89.0698 117.139,89.9032 116.5,90.5C 115.833,90.5 115.167,90.5 114.5,90.5C 113.833,90.5 113.5,90.1667 113.5,89.5C 113.5,88.8333 113.5,88.1667 113.5,87.5C 113.5,86.1667 114.167,85.5 115.5,85.5 Z"/></g>
<g><path style="opacity:1" fill="#fefdf3" d="M 145.5,82.5 C 148.187,82.3359 150.854,82.5026 153.5,83C 155.833,86.6667 158.167,90.3333 160.5,94C 153.347,92.2246 146.347,89.7246 139.5,86.5C 141.219,84.6478 143.219,83.3145 145.5,82.5 Z"/></g>
<g><path style="opacity:1" fill="#f5d33e" d="M 132.5,80.5 C 134.588,81.2008 136.588,82.2008 138.5,83.5C 138.931,89.7414 136.265,91.7414 130.5,89.5C 130.5,88.8333 130.167,88.5 129.5,88.5C 129.5,87.8333 129.5,87.1667 129.5,86.5C 129.263,85.209 129.596,84.209 130.5,83.5C 131.167,82.5 131.833,81.5 132.5,80.5 Z"/></g>
<g><path style="opacity:1" fill="#fefdf4" d="M 166.5,79.5 C 167.167,79.5 167.5,79.8333 167.5,80.5C 166.69,85.1268 165.024,89.4601 162.5,93.5C 160.582,89.9961 158.416,86.6628 156,83.5C 155.51,82.2068 155.343,80.8734 155.5,79.5C 159.167,79.5 162.833,79.5 166.5,79.5 Z"/></g>
<g><path style="opacity:1" fill="#f3d234" d="M 153.5,77.5 C 154.824,80.7947 153.491,82.128 149.5,81.5C 149.167,78.5 150.5,77.1667 153.5,77.5 Z"/></g>
<g><path style="opacity:1" fill="#fefef7" d="M 130.5,83.5 C 129.596,84.209 129.263,85.209 129.5,86.5C 125.833,86.5 122.167,86.5 118.5,86.5C 120.012,81.141 122.346,76.141 125.5,71.5C 128.826,74.8175 130.493,78.8175 130.5,83.5 Z"/></g>
<g><path style="opacity:1" fill="#fdfdf6" d="M 138.5,83.5 C 136.588,82.2008 134.588,81.2008 132.5,80.5C 131.803,77.5768 130.803,74.7435 129.5,72C 129.833,71.5 130.167,71 130.5,70.5C 136.486,73.4754 142.486,76.4754 148.5,79.5C 145.232,81.0329 141.899,82.3662 138.5,83.5 Z"/></g>
<g><path style="opacity:1" fill="#fefdf4" d="M 119.5,71.5 C 120.497,71.4701 121.164,71.9701 121.5,73C 119.623,77.2539 117.623,81.4206 115.5,85.5C 114.167,85.5 113.5,86.1667 113.5,87.5C 109.524,88.3307 105.524,88.4973 101.5,88C 102.252,87.3292 102.586,86.4959 102.5,85.5C 103.794,83.093 105.461,80.9263 107.5,79C 111.052,75.7272 115.052,73.2272 119.5,71.5 Z"/></g>
<g><path style="opacity:1" fill="#fdfdf1" d="M 132.5,67.5 C 137.537,67.4126 142.537,67.746 147.5,68.5C 153.745,70.0218 159.412,72.6884 164.5,76.5C 161.229,78.8424 157.562,79.1757 153.5,77.5C 146.651,75.9272 139.985,73.4272 133.5,70C 132.748,69.3292 132.414,68.4959 132.5,67.5 Z"/></g>
<g><path style="opacity:1" fill="#f1e37e" d="M 132.5,67.5 C 134.304,66.838 136.304,66.5046 138.5,66.5C 141.814,66.3425 144.814,67.0092 147.5,68.5C 142.537,67.746 137.537,67.4126 132.5,67.5 Z"/></g>
<g><path style="opacity:1" fill="#fefdf5" d="M 95.5,93.5 C 96.1667,93.5 96.8333,93.5 97.5,93.5C 100.467,96.7595 102.467,100.426 103.5,104.5C 103.5,105.167 103.833,105.5 104.5,105.5C 108.106,108.024 110.772,111.357 112.5,115.5C 104.956,112.396 97.4557,109.063 90,105.5C 90.9811,101.198 92.8144,97.1983 95.5,93.5 Z"/></g>
<g><path style="opacity:1" fill="#eddf8a" d="M 114.5,90.5 C 115.167,90.5 115.833,90.5 116.5,90.5C 116.5,98.1667 116.5,105.833 116.5,113.5C 117.5,113.5 118.5,113.5 119.5,113.5C 119.5,113.833 119.5,114.167 119.5,114.5C 117.05,114.298 114.717,114.631 112.5,115.5C 110.772,111.357 108.106,108.024 104.5,105.5C 105.5,105.5 106.5,105.5 107.5,105.5C 107.5,103.833 107.5,102.167 107.5,100.5C 108.016,105.533 110.183,109.866 114,113.5C 114.5,105.841 114.666,98.1739 114.5,90.5 Z"/></g>
<g><path style="opacity:1" fill="#f3d236" d="M 165.5,95.5 C 165.5,96.5 165.5,97.5 165.5,98.5C 163.833,98.5 162.167,98.5 160.5,98.5C 160.525,94.7162 162.192,93.7162 165.5,95.5 Z"/></g>
<g><path style="opacity:1" fill="#f9f3c4" d="M 184.5,93.5 C 185.434,94.5676 185.768,95.901 185.5,97.5C 183.585,97.7845 181.919,97.4511 180.5,96.5C 181.833,96.5 183.167,96.5 184.5,96.5C 184.5,95.5 184.5,94.5 184.5,93.5 Z"/></g>
<g><path style="opacity:1" fill="#efe393" d="M 99.5,91.5 C 100.587,96.0729 103.254,99.0729 107.5,100.5C 106.167,100.5 104.833,100.5 103.5,100.5C 103.5,101.833 103.5,103.167 103.5,104.5C 102.467,100.426 100.467,96.7595 97.5,93.5C 98.1667,92.8333 98.8333,92.1667 99.5,91.5 Z"/></g>
<g><path style="opacity:1" fill="#fefef9" d="M 68.5,99.5 C 68.8333,99.5 69.1667,99.5 69.5,99.5C 75.2837,100.723 80.6171,103.057 85.5,106.5C 82.666,112.173 79.3326,117.506 75.5,122.5C 73.2961,119.553 72.2961,116.22 72.5,112.5C 72.7373,111.209 72.404,110.209 71.5,109.5C 69.753,106.466 68.753,103.132 68.5,99.5 Z"/></g>
<g><path style="opacity:1" fill="#fefdf1" d="M 64.5,100.5 C 65.4959,100.414 66.3292,100.748 67,101.5C 67.1762,105.688 67.6762,109.688 68.5,113.5C 70.9758,116.278 71.9758,119.611 71.5,123.5C 71.1583,124.338 70.4916,124.672 69.5,124.5C 66.2024,122.515 62.8691,120.515 59.5,118.5C 58.0181,111.773 59.6847,105.773 64.5,100.5 Z"/></g>
<g><path style="opacity:1" fill="#f2d345" d="M 107.5,100.5 C 107.5,102.167 107.5,103.833 107.5,105.5C 106.5,105.5 105.5,105.5 104.5,105.5C 103.833,105.5 103.5,105.167 103.5,104.5C 103.5,103.167 103.5,101.833 103.5,100.5C 104.833,100.5 106.167,100.5 107.5,100.5 Z"/></g>
<g><path style="opacity:1" fill="#4680b8" d="M 224.5,91.5 C 224.5,91.8333 224.5,92.1667 224.5,92.5C 214.501,97.1619 205.167,102.829 196.5,109.5C 196.158,108.662 195.492,108.328 194.5,108.5C 203.518,101.318 213.518,95.6516 224.5,91.5 Z"/></g>
<g><path style="opacity:1" fill="#f3d336" d="M 142.5,102.5 C 142.833,102.5 143.167,102.5 143.5,102.5C 144.933,104.518 144.599,106.185 142.5,107.5C 141.833,107.5 141.167,107.5 140.5,107.5C 139.766,106.292 139.433,104.959 139.5,103.5C 140.391,102.89 141.391,102.557 142.5,102.5 Z"/></g>
<g><path style="opacity:1" fill="#f0e38e" d="M 64.5,100.5 C 65.5676,99.5655 66.901,99.2322 68.5,99.5C 68.753,103.132 69.753,106.466 71.5,109.5C 70.5,109.5 69.5,109.5 68.5,109.5C 68.5,110.833 68.5,112.167 68.5,113.5C 67.6762,109.688 67.1762,105.688 67,101.5C 66.3292,100.748 65.4959,100.414 64.5,100.5 Z"/></g>
<g><path style="opacity:1" fill="#4983bb" d="M 189.5,105.5 C 190.167,105.5 190.5,105.833 190.5,106.5C 183.271,110.08 176.605,114.413 170.5,119.5C 166.36,120.044 165.693,119.044 168.5,116.5C 175.342,112.578 182.342,108.912 189.5,105.5 Z"/></g>
<g><path style="opacity:1" fill="#f3d646" d="M 71.5,109.5 C 72.404,110.209 72.7373,111.209 72.5,112.5C 71.2921,113.234 69.9587,113.567 68.5,113.5C 68.5,112.167 68.5,110.833 68.5,109.5C 69.5,109.5 70.5,109.5 71.5,109.5 Z"/></g>
<g><path style="opacity:1" fill="#eef6f8" d="M 224.5,91.5 C 213.518,95.6516 203.518,101.318 194.5,108.5C 186.596,113.402 179.262,119.068 172.5,125.5C 172.133,122.9 171.467,120.9 170.5,119.5C 176.605,114.413 183.271,110.08 190.5,106.5C 193.646,104.425 196.979,102.592 200.5,101C 196.4,101.381 192.734,102.881 189.5,105.5C 182.342,108.912 175.342,112.578 168.5,116.5C 167.082,114.692 165.082,114.025 162.5,114.5C 174.847,107.497 187.847,101.83 201.5,97.5C 208.56,94.9411 215.727,92.6077 223,90.5C 223.765,90.5699 224.265,90.9033 224.5,91.5 Z"/></g>
<g><path style="opacity:1" fill="#7ea3bb" d="M 190.5,106.5 C 190.5,105.833 190.167,105.5 189.5,105.5C 192.734,102.881 196.4,101.381 200.5,101C 196.979,102.592 193.646,104.425 190.5,106.5 Z"/></g>
<g><path style="opacity:1" fill="#ecdf8e" d="M 139.5,103.5 C 139.433,104.959 139.766,106.292 140.5,107.5C 134.198,110.067 128.031,113.067 122,116.5C 121.324,119.958 122.824,121.958 126.5,122.5C 127.833,123.167 127.833,123.833 126.5,124.5C 124.466,123.441 122.466,122.441 120.5,121.5C 120.702,119.05 120.369,116.717 119.5,114.5C 120.873,114.657 122.207,114.49 123.5,114C 129.366,111.127 134.699,107.627 139.5,103.5 Z"/></g>
<g><path style="opacity:1" fill="#f5d13c" d="M 119.5,114.5 C 120.369,116.717 120.702,119.05 120.5,121.5C 118.858,123.081 116.858,123.747 114.5,123.5C 113.833,123.167 113.167,122.833 112.5,122.5C 111.314,120.126 111.314,117.792 112.5,115.5C 114.717,114.631 117.05,114.298 119.5,114.5 Z"/></g>
<g><path style="opacity:1" fill="#f5eebd" d="M 140.5,107.5 C 141.167,107.5 141.833,107.5 142.5,107.5C 141.597,110.391 141.264,113.391 141.5,116.5C 140.5,116.5 139.5,116.5 138.5,116.5C 139.167,113.5 139.833,110.5 140.5,107.5 Z"/></g>
<g><path style="opacity:1" fill="#f4e382" d="M 54.5,112.5 C 54.5,113.5 54.5,114.5 54.5,115.5C 49.8181,116.845 45.1514,118.178 40.5,119.5C 45.1767,117.165 49.8434,114.831 54.5,112.5 Z"/></g>
<g><path style="opacity:1" fill="#eee190" d="M 59.5,118.5 C 62.8691,120.515 66.2024,122.515 69.5,124.5C 68.8333,124.5 68.5,124.833 68.5,125.5C 65.6987,124.265 63.0321,122.765 60.5,121C 58.5,120.333 56.5,120.333 54.5,121C 51.4478,124.182 49.1144,127.682 47.5,131.5C 47.5,130.167 47.5,128.833 47.5,127.5C 46.1667,127.5 44.8333,127.5 43.5,127.5C 46.7601,126.774 49.4268,124.94 51.5,122C 50.552,121.517 49.552,121.351 48.5,121.5C 52.0237,119.997 55.6903,118.997 59.5,118.5 Z"/></g>
<g><path style="opacity:1" fill="#fefef8" d="M 68.5,125.5 C 67.7106,128.434 65.7106,130.268 62.5,131C 55.2221,132.736 48.2221,135.236 41.5,138.5C 40.479,137.998 40.3123,137.332 41,136.5C 42.8049,134.174 44.9716,132.508 47.5,131.5C 49.1144,127.682 51.4478,124.182 54.5,121C 56.5,120.333 58.5,120.333 60.5,121C 63.0321,122.765 65.6987,124.265 68.5,125.5 Z"/></g>
<g><path style="opacity:1" fill="#f4d33d" d="M 71.5,123.5 C 74.2108,123.185 76.5441,123.852 78.5,125.5C 78.7206,132.472 75.8872,134.138 70,130.5C 69.8019,128.618 69.3019,126.952 68.5,125.5C 68.5,124.833 68.8333,124.5 69.5,124.5C 70.4916,124.672 71.1583,124.338 71.5,123.5 Z"/></g>
<g><path style="opacity:1" fill="#fefdf1" d="M 48.5,121.5 C 49.552,121.351 50.552,121.517 51.5,122C 49.4268,124.94 46.7601,126.774 43.5,127.5C 42.5401,132.424 39.8735,136.091 35.5,138.5C 34.5655,139.568 34.2322,140.901 34.5,142.5C 31.1667,145.167 28.1667,148.167 25.5,151.5C 24.8529,150.726 24.5195,149.726 24.5,148.5C 24.8864,146.068 25.5531,143.734 26.5,141.5C 30.5441,131.155 37.8774,124.489 48.5,121.5 Z"/></g>
<g><path style="opacity:1" fill="#ede095" d="M 112.5,122.5 C 113.167,122.833 113.833,123.167 114.5,123.5C 113.399,127.706 111.733,131.706 109.5,135.5C 109.167,135.167 108.833,134.833 108.5,134.5C 110.043,130.539 111.376,126.539 112.5,122.5 Z"/></g>
<g><path style="opacity:1" fill="#3c85ca" d="M 199.5,96.5 C 200.492,96.3284 201.158,96.6618 201.5,97.5C 187.847,101.83 174.847,107.497 162.5,114.5C 131.585,128.9 104.752,148.9 82,174.5C 77.2524,180.994 72.7524,187.661 68.5,194.5C 56.9791,197.174 46.3124,195.341 36.5,189C 35.1772,188.184 34.5106,187.017 34.5,185.5C 35.1667,184.833 35.8333,184.167 36.5,183.5C 39.7133,186.274 43.38,188.274 47.5,189.5C 49.5145,190.924 51.8478,191.59 54.5,191.5C 57.8499,191.665 61.1832,191.498 64.5,191C 81.3067,165.192 102.973,144.526 129.5,129C 151.488,115.387 174.821,104.554 199.5,96.5 Z"/></g>
<g><path style="opacity:1" fill="#fefdf5" d="M 72.5,151.5 C 71.8333,152.167 71.1667,152.833 70.5,153.5C 65.602,154.223 60.9353,155.556 56.5,157.5C 56.5,157.167 56.5,156.833 56.5,156.5C 56.3505,155.448 56.5172,154.448 57,153.5C 61.9361,146.614 67.1028,139.947 72.5,133.5C 73.7878,139.554 73.7878,145.554 72.5,151.5 Z"/></g>
<g><path style="opacity:1" fill="#4185c7" d="M 156.5,124.5 C 161.933,123.813 162.599,124.979 158.5,128C 154.131,130.857 150.131,134.19 146.5,138C 144.741,138.798 143.074,138.631 141.5,137.5C 146.759,133.385 151.759,129.052 156.5,124.5 Z"/></g>
<g><path style="opacity:1" fill="#f4dd6a" d="M 24.5,135.5 C 24.1062,136.967 23.7728,138.467 23.5,140C 23.6824,142.578 24.6824,143.078 26.5,141.5C 25.5531,143.734 24.8864,146.068 24.5,148.5C 24.5195,149.726 24.8529,150.726 25.5,151.5C 25.5,152.167 25.5,152.833 25.5,153.5C 25.5,154.167 25.5,154.833 25.5,155.5C 23.9823,152.466 23.1489,149.133 23,145.5C 22.2303,144.402 21.397,144.402 20.5,145.5C 20.3433,144.127 20.51,142.793 21,141.5C 21.876,139.242 23.0427,137.242 24.5,135.5 Z"/></g>
<g><path style="opacity:1" fill="#ede08e" d="M 92.5,91.5 C 93.7777,91.7822 94.7777,92.4489 95.5,93.5C 92.8144,97.1983 90.9811,101.198 90,105.5C 97.4557,109.063 104.956,112.396 112.5,115.5C 111.314,117.792 111.314,120.126 112.5,122.5C 109.592,121.431 106.592,121.264 103.5,122C 95.5575,124.153 87.5575,125.986 79.5,127.5C 79.3433,128.873 79.51,130.207 80,131.5C 83.1415,134.993 86.9748,137.16 91.5,138C 92.1898,140.696 93.6898,142.863 96,144.5C 96.6877,145.332 96.521,145.998 95.5,146.5C 92.897,144.547 90.2304,142.88 87.5,141.5C 84.9376,138.11 81.7709,135.11 78,132.5C 77.586,132.957 77.086,133.291 76.5,133.5C 75.5041,139.463 75.1707,145.463 75.5,151.5C 74.5,151.5 73.5,151.5 72.5,151.5C 73.7878,145.554 73.7878,139.554 72.5,133.5C 67.1028,139.947 61.9361,146.614 57,153.5C 56.5172,154.448 56.3505,155.448 56.5,156.5C 55.6618,156.158 55.3284,155.492 55.5,154.5C 59.2369,147.373 63.7369,140.706 69,134.5C 69.4828,133.552 69.6495,132.552 69.5,131.5C 59.8044,134.008 50.1377,136.674 40.5,139.5C 40.3433,140.873 40.51,142.207 41,143.5C 44.0486,147.043 46.8819,150.709 49.5,154.5C 48.8333,155.5 48.1667,156.5 47.5,157.5C 47.6567,156.127 47.49,154.793 47,153.5C 44.4919,150.469 41.9919,147.469 39.5,144.5C 37.8333,143.833 36.1667,143.167 34.5,142.5C 34.2322,140.901 34.5655,139.568 35.5,138.5C 39.8735,136.091 42.5401,132.424 43.5,127.5C 44.8333,127.5 46.1667,127.5 47.5,127.5C 47.5,128.833 47.5,130.167 47.5,131.5C 44.9716,132.508 42.8049,134.174 41,136.5C 40.3123,137.332 40.479,137.998 41.5,138.5C 48.2221,135.236 55.2221,132.736 62.5,131C 65.7106,130.268 67.7106,128.434 68.5,125.5C 69.3019,126.952 69.8019,128.618 70,130.5C 75.8872,134.138 78.7206,132.472 78.5,125.5C 76.5441,123.852 74.2108,123.185 71.5,123.5C 71.9758,119.611 70.9758,116.278 68.5,113.5C 69.9587,113.567 71.2921,113.234 72.5,112.5C 72.2961,116.22 73.2961,119.553 75.5,122.5C 79.3326,117.506 82.666,112.173 85.5,106.5C 80.6171,103.057 75.2837,100.723 69.5,99.5C 70.0241,97.6943 70.6908,96.0276 71.5,94.5C 71.281,95.675 71.6143,96.675 72.5,97.5C 77.4423,100.642 82.7756,102.642 88.5,103.5C 89.6072,99.9523 91.2738,96.6189 93.5,93.5C 93.1373,92.8165 92.8039,92.1499 92.5,91.5 Z"/></g>
<g><path style="opacity:1" fill="#f6d435" d="M 87.5,141.5 C 87.5,140.5 87.5,139.5 87.5,138.5C 89.3464,138.222 90.6798,138.889 91.5,140.5C 90.3112,141.429 88.9778,141.762 87.5,141.5 Z"/></g>
<g><path style="opacity:1" fill="#f4d237" d="M 35.5,138.5 C 36.8333,138.5 38.1667,138.5 39.5,138.5C 39.5,139.833 39.5,141.167 39.5,142.5C 38.1667,142.5 36.8333,142.5 35.5,142.5C 35.5,141.167 35.5,139.833 35.5,138.5 Z"/></g>
<g><path style="opacity:1" fill="#fefef8" d="M 55.5,154.5 C 53.5,154.5 51.5,154.5 49.5,154.5C 46.8819,150.709 44.0486,147.043 41,143.5C 40.51,142.207 40.3433,140.873 40.5,139.5C 50.1377,136.674 59.8044,134.008 69.5,131.5C 69.6495,132.552 69.4828,133.552 69,134.5C 63.7369,140.706 59.2369,147.373 55.5,154.5 Z"/></g>
<g><path style="opacity:1" fill="#f5d436" d="M 43.5,127.5 C 44.8333,127.5 46.1667,127.5 47.5,127.5C 47.5,128.833 47.5,130.167 47.5,131.5C 46.1667,131.5 44.8333,131.5 43.5,131.5C 43.5,130.167 43.5,128.833 43.5,127.5 Z"/></g>
<g><path style="opacity:1" fill="#fefdf9" d="M 78.5,125.5 C 80.2384,119.356 83.0718,113.69 87,108.5C 87.5613,107.978 88.228,107.645 89,107.5C 95.9115,111.209 103.078,114.209 110.5,116.5C 110.5,117.5 110.5,118.5 110.5,119.5C 99.715,120.873 89.0483,122.873 78.5,125.5 Z"/></g>
<g><path style="opacity:1" fill="#3a83c8" d="M 131.5,145.5 C 133.604,145.201 135.604,145.534 137.5,146.5C 133.26,151.317 129.26,156.317 125.5,161.5C 122.894,162.652 120.227,162.818 117.5,162C 122.377,156.627 127.044,151.127 131.5,145.5 Z"/></g>
<g><path style="opacity:1" fill="#fefef7" d="M 25.5,155.5 C 25.5,154.833 25.5,154.167 25.5,153.5C 28.4639,151.038 31.2972,148.371 34,145.5C 34.4983,148.817 34.665,152.15 34.5,155.5C 31.5,155.5 28.5,155.5 25.5,155.5 Z"/></g>
<g><path style="opacity:1" fill="#fdfdf5" d="M 39.5,144.5 C 41.9919,147.469 44.4919,150.469 47,153.5C 47.49,154.793 47.6567,156.127 47.5,157.5C 43.8936,157.789 40.3936,157.456 37,156.5C 36.3333,153.833 36.3333,151.167 37,148.5C 37.1216,146.563 37.955,145.23 39.5,144.5 Z"/></g>
<g><path style="opacity:1" fill="#efe39e" d="M 34.5,142.5 C 36.1667,143.167 37.8333,143.833 39.5,144.5C 37.955,145.23 37.1216,146.563 37,148.5C 36.3333,151.167 36.3333,153.833 37,156.5C 40.3936,157.456 43.8936,157.789 47.5,157.5C 47.5,158.5 47.5,159.5 47.5,160.5C 43.5607,159.673 39.5607,159.006 35.5,158.5C 34.1889,164.417 33.5222,170.417 33.5,176.5C 31.901,176.768 30.5676,176.434 29.5,175.5C 30.6491,175.209 31.3158,174.376 31.5,173C 32.277,167.839 32.9436,162.673 33.5,157.5C 30.5,157.5 27.5,157.5 24.5,157.5C 24.8333,156.833 25.1667,156.167 25.5,155.5C 28.5,155.5 31.5,155.5 34.5,155.5C 34.665,152.15 34.4983,148.817 34,145.5C 31.2972,148.371 28.4639,151.038 25.5,153.5C 25.5,152.833 25.5,152.167 25.5,151.5C 28.1667,148.167 31.1667,145.167 34.5,142.5 Z"/></g>
<g><path style="opacity:1" fill="#fcf7bf" d="M 20.5,145.5 C 20.4349,148.428 19.7682,151.095 18.5,153.5C 18.2938,150.505 18.9605,147.838 20.5,145.5 Z"/></g>
<g><path style="opacity:1" fill="#eee296" d="M 76.5,151.5 C 92.2405,151.263 92.2405,152.263 76.5,154.5C 76.5,153.5 76.5,152.5 76.5,151.5 Z"/></g>
<g><path style="opacity:1" fill="#f1d23d" d="M 72.5,151.5 C 73.5,151.5 74.5,151.5 75.5,151.5C 75.8333,151.5 76.1667,151.5 76.5,151.5C 76.5,152.5 76.5,153.5 76.5,154.5C 75.609,155.11 74.609,155.443 73.5,155.5C 73.1667,155.5 72.8333,155.5 72.5,155.5C 71.8333,154.833 71.1667,154.167 70.5,153.5C 71.1667,152.833 71.8333,152.167 72.5,151.5 Z"/></g>
<g><path style="opacity:1" fill="#f4d33d" d="M 49.5,154.5 C 51.5,154.5 53.5,154.5 55.5,154.5C 55.3284,155.492 55.6618,156.158 56.5,156.5C 56.5,156.833 56.5,157.167 56.5,157.5C 56.5026,162.815 53.836,164.815 48.5,163.5C 48.7373,162.209 48.404,161.209 47.5,160.5C 47.5,159.5 47.5,158.5 47.5,157.5C 48.1667,156.5 48.8333,155.5 49.5,154.5 Z"/></g>
<g><path style="opacity:1" fill="#fefef6" d="M 24.5,157.5 C 27.5,157.5 30.5,157.5 33.5,157.5C 32.9436,162.673 32.277,167.839 31.5,173C 31.3158,174.376 30.6491,175.209 29.5,175.5C 26.5977,169.896 24.9311,163.896 24.5,157.5 Z"/></g>
<g><path style="opacity:1" fill="#fefef8" d="M 47.5,160.5 C 44.646,167.358 39.9793,172.691 33.5,176.5C 33.5222,170.417 34.1889,164.417 35.5,158.5C 39.5607,159.006 43.5607,159.673 47.5,160.5 Z"/></g>
<g><path style="opacity:1" fill="#f0e6a2" d="M 76.5,154.5 C 76.8204,157.898 76.487,161.232 75.5,164.5C 74.7508,161.473 74.0841,158.473 73.5,155.5C 74.609,155.443 75.609,155.11 76.5,154.5 Z"/></g>
<g><path style="opacity:1" fill="#f9f1ac" d="M 20.5,165.5 C 21.871,167.936 22.871,170.603 23.5,173.5C 21.3455,171.383 20.3455,168.716 20.5,165.5 Z"/></g>
<g><path style="opacity:1" fill="#f3d446" d="M 25.5,155.5 C 25.1667,156.167 24.8333,156.833 24.5,157.5C 24.9311,163.896 26.5977,169.896 29.5,175.5C 30.5676,176.434 31.901,176.768 33.5,176.5C 34.5,177.5 35.5,178.5 36.5,179.5C 36.5,180.167 36.5,180.833 36.5,181.5C 36.5,182.167 36.5,182.833 36.5,183.5C 35.8333,184.167 35.1667,184.833 34.5,185.5C 28.8558,187.035 26.3558,184.701 27,178.5C 25.3308,177.154 24.1642,175.487 23.5,173.5C 22.871,170.603 21.871,167.936 20.5,165.5C 19.9993,161.98 18.9993,158.646 17.5,155.5C 17.5427,154.584 17.8761,153.917 18.5,153.5C 19.7682,151.095 20.4349,148.428 20.5,145.5C 21.397,144.402 22.2303,144.402 23,145.5C 23.1489,149.133 23.9823,152.466 25.5,155.5 Z"/></g>
<g><path style="opacity:1" fill="#3885cd" d="M 107.5,195.5 C 104.287,195.81 101.287,195.477 98.5,194.5C 101.967,186.901 105.967,179.567 110.5,172.5C 112.743,171.526 115.076,171.192 117.5,171.5C 114.133,179.557 110.8,187.557 107.5,195.5 Z"/></g>
<g><path style="opacity:1" fill="#eee298" d="M 70.5,153.5 C 71.1667,154.167 71.8333,154.833 72.5,155.5C 67.5538,156.623 62.5538,157.623 57.5,158.5C 57.281,159.675 57.6143,160.675 58.5,161.5C 62.8333,164.167 67.1667,166.833 71.5,169.5C 71.1667,169.833 70.8333,170.167 70.5,170.5C 65.557,167.859 60.557,165.526 55.5,163.5C 56.3201,167.797 57.8201,171.797 60,175.5C 60.8676,178.485 61.2009,181.485 61,184.5C 59.5742,177.378 55.7409,175.711 49.5,179.5C 49.5,178.5 49.5,177.5 49.5,176.5C 51.5273,176.662 53.5273,176.495 55.5,176C 56.2265,172.374 55.5599,168.874 53.5,165.5C 51.9255,164.369 50.2588,164.202 48.5,165C 43.5099,169.144 39.5099,173.977 36.5,179.5C 35.5,178.5 34.5,177.5 33.5,176.5C 39.9793,172.691 44.646,167.358 47.5,160.5C 48.404,161.209 48.7373,162.209 48.5,163.5C 53.836,164.815 56.5026,162.815 56.5,157.5C 60.9353,155.556 65.602,154.223 70.5,153.5 Z"/></g>
<g><path style="opacity:1" fill="#fefef7" d="M 49.5,176.5 C 48.209,176.263 47.209,176.596 46.5,177.5C 43.2389,178.378 39.9055,179.044 36.5,179.5C 39.5099,173.977 43.5099,169.144 48.5,165C 50.2588,164.202 51.9255,164.369 53.5,165.5C 55.5599,168.874 56.2265,172.374 55.5,176C 53.5273,176.495 51.5273,176.662 49.5,176.5 Z"/></g>
<g><path style="opacity:1" fill="#f1d965" d="M 49.5,176.5 C 49.5,177.5 49.5,178.5 49.5,179.5C 48.5,180.833 47.5,180.833 46.5,179.5C 46.5,178.833 46.5,178.167 46.5,177.5C 47.209,176.596 48.209,176.263 49.5,176.5 Z"/></g>
<g><path style="opacity:1" fill="#efe4a3" d="M 46.5,177.5 C 46.5,178.167 46.5,178.833 46.5,179.5C 43.0611,179.788 39.7278,180.454 36.5,181.5C 36.5,180.833 36.5,180.167 36.5,179.5C 39.9055,179.044 43.2389,178.378 46.5,177.5 Z"/></g>
<g><path style="opacity:1" fill="#a7cee1" d="M 47.5,189.5 C 50.1522,189.41 52.4855,190.076 54.5,191.5C 51.8478,191.59 49.5145,190.924 47.5,189.5 Z"/></g>
<g><path style="opacity:1" fill="#3c85cd" d="M 165.5,196.5 C 157.016,195.507 148.349,195.174 139.5,195.5C 139.5,193.167 139.5,190.833 139.5,188.5C 141.995,169.841 149.162,153.174 161,138.5C 164.67,133.998 168.503,129.665 172.5,125.5C 179.262,119.068 186.596,113.402 194.5,108.5C 195.492,108.328 196.158,108.662 196.5,109.5C 171.276,126.966 154.109,150.3 145,179.5C 144.499,183.51 143.999,187.51 143.5,191.5C 150.841,191.666 158.174,191.5 165.5,191C 166.056,190.617 166.389,190.117 166.5,189.5C 166.833,189.5 167.167,189.5 167.5,189.5C 168.5,189.5 169.5,189.5 170.5,189.5C 171.99,191.28 173.99,191.946 176.5,191.5C 187.772,192.852 198.438,191.018 208.5,186C 210.996,184.669 212.996,182.836 214.5,180.5C 215.131,178.066 216.131,175.732 217.5,173.5C 217.833,173.5 218.167,173.5 218.5,173.5C 219.496,173.586 220.329,173.252 221,172.5C 224.161,164.091 225.161,155.424 224,146.5C 223.337,142.965 221.837,139.965 219.5,137.5C 217.596,137.262 216.262,136.262 215.5,134.5C 215.378,130.853 213.712,128.019 210.5,126C 205.719,123.02 200.719,120.52 195.5,118.5C 202.772,111.393 210.772,105.56 219.5,101C 213.946,106.051 208.946,111.551 204.5,117.5C 211.44,121.614 217.94,126.281 224,131.5C 225.029,136.565 226.362,141.565 228,146.5C 228.667,152.5 228.667,158.5 228,164.5C 224.105,180.397 213.938,190.564 197.5,195C 188.833,195.333 180.167,195.667 171.5,196C 169.635,197.8 167.635,197.966 165.5,196.5 Z"/></g>
<g><path style="opacity:1" fill="#fafcf7" d="M 214.5,180.5 C 212.996,182.836 210.996,184.669 208.5,186C 198.438,191.018 187.772,192.852 176.5,191.5C 182.456,188.365 188.789,186.032 195.5,184.5C 197.099,184.768 198.432,184.434 199.5,183.5C 204.211,181.611 209.211,180.611 214.5,180.5 Z"/></g>
<g><path style="opacity:1" fill="#f1e69c" d="M 214.5,180.5 C 209.211,180.611 204.211,181.611 199.5,183.5C 199.5,182.5 199.5,181.5 199.5,180.5C 203.337,179.917 207.17,179.25 211,178.5C 212.681,178.608 213.848,179.275 214.5,180.5 Z"/></g>
<g><path style="opacity:1" fill="#f1d443" d="M 195.5,179.5 C 196.167,179.5 196.833,179.5 197.5,179.5C 198.167,179.833 198.833,180.167 199.5,180.5C 199.5,181.5 199.5,182.5 199.5,183.5C 198.432,184.434 197.099,184.768 195.5,184.5C 194.766,183.292 194.433,181.959 194.5,180.5C 195.167,180.5 195.5,180.167 195.5,179.5 Z"/></g>
<g><path style="opacity:1" fill="#ece091" d="M 190.5,165.5 C 191.5,166.5 192.5,167.5 193.5,168.5C 192.761,168.369 192.094,168.536 191.5,169C 185.684,175.65 179.684,182.15 173.5,188.5C 174.365,189.583 175.365,189.749 176.5,189C 182.937,186.814 188.937,183.98 194.5,180.5C 194.433,181.959 194.766,183.292 195.5,184.5C 188.789,186.032 182.456,188.365 176.5,191.5C 173.99,191.946 171.99,191.28 170.5,189.5C 175.193,183.487 180.359,177.82 186,172.5C 187.75,170.266 189.25,167.932 190.5,165.5 Z"/></g>
<g><path style="opacity:1" fill="#ece097" d="M 194.5,168.5 C 195.167,168.5 195.833,168.5 196.5,168.5C 196.724,172.179 197.058,175.846 197.5,179.5C 196.833,179.5 196.167,179.5 195.5,179.5C 195.677,175.766 195.344,172.099 194.5,168.5 Z"/></g>
<g><path style="opacity:1" fill="#f1d141" d="M 165.5,168.5 C 165.5,169.5 165.5,170.5 165.5,171.5C 165.5,172.167 165.167,172.5 164.5,172.5C 163.167,172.5 161.833,172.5 160.5,172.5C 160.384,169.09 162.05,167.756 165.5,168.5 Z"/></g>
<g><path style="opacity:1" fill="#fefdf6" d="M 193.5,168.5 C 193.833,168.5 194.167,168.5 194.5,168.5C 195.344,172.099 195.677,175.766 195.5,179.5C 195.5,180.167 195.167,180.5 194.5,180.5C 188.937,183.98 182.937,186.814 176.5,189C 175.365,189.749 174.365,189.583 173.5,188.5C 179.684,182.15 185.684,175.65 191.5,169C 192.094,168.536 192.761,168.369 193.5,168.5 Z"/></g>
<g><path style="opacity:1" fill="#fcfcf5" d="M 213.5,159.5 C 213.833,159.5 214.167,159.5 214.5,159.5C 215.667,164.252 216.667,168.918 217.5,173.5C 216.131,175.732 215.131,178.066 214.5,180.5C 213.848,179.275 212.681,178.608 211,178.5C 207.17,179.25 203.337,179.917 199.5,180.5C 198.833,180.167 198.167,179.833 197.5,179.5C 197.058,175.846 196.724,172.179 196.5,168.5C 197.167,168.167 197.833,167.833 198.5,167.5C 203.804,170.322 209.137,172.822 214.5,175C 209.578,171.72 204.911,168.22 200.5,164.5C 200.608,163.558 200.941,162.725 201.5,162C 205.414,160.717 209.414,159.884 213.5,159.5 Z"/></g>
<g><path style="opacity:1" fill="#fefdf7" d="M 190.5,165.5 C 189.25,167.932 187.75,170.266 186,172.5C 180.359,177.82 175.193,183.487 170.5,189.5C 169.5,189.5 168.5,189.5 167.5,189.5C 167.128,183.718 166.128,178.052 164.5,172.5C 165.167,172.5 165.5,172.167 165.5,171.5C 173.71,169.099 182.044,167.099 190.5,165.5 Z"/></g>
<g><path style="opacity:1" fill="#eee49b" d="M 166.5,150.5 C 167.167,150.833 167.833,151.167 168.5,151.5C 167.045,156.999 166.045,162.666 165.5,168.5C 162.05,167.756 160.384,169.09 160.5,172.5C 161.833,172.5 163.167,172.5 164.5,172.5C 166.128,178.052 167.128,183.718 167.5,189.5C 167.167,189.5 166.833,189.5 166.5,189.5C 165.21,184.664 164.043,179.664 163,174.5C 162.107,173.919 161.107,173.585 160,173.5C 152.349,176.442 151.849,175.775 158.5,171.5C 158.941,168.717 158.941,166.05 158.5,163.5C 159.48,164.981 160.647,166.315 162,167.5C 164.093,161.984 165.593,156.317 166.5,150.5 Z"/></g>
<g><path style="opacity:1" fill="#ecde88" d="M 214.5,159.5 C 215.167,159.5 215.833,159.5 216.5,159.5C 217.487,164.117 218.154,168.784 218.5,173.5C 218.167,173.5 217.833,173.5 217.5,173.5C 216.667,168.918 215.667,164.252 214.5,159.5 Z"/></g>
<g><path style="opacity:1" fill="#f4d238" d="M 195.5,158.5 C 199.362,160.426 200.362,163.426 198.5,167.5C 197.833,167.833 197.167,168.167 196.5,168.5C 195.833,168.5 195.167,168.5 194.5,168.5C 194.167,168.5 193.833,168.5 193.5,168.5C 192.5,167.5 191.5,166.5 190.5,165.5C 190.259,163.114 190.925,161.114 192.5,159.5C 193.391,158.89 194.391,158.557 195.5,158.5 Z"/></g>
<g><path style="opacity:1" fill="#f3d541" d="M 212.5,154.5 C 212.833,154.5 213.167,154.5 213.5,154.5C 214.5,154.5 215.5,154.5 216.5,154.5C 217.72,156.05 217.72,157.716 216.5,159.5C 215.833,159.5 215.167,159.5 214.5,159.5C 214.167,159.5 213.833,159.5 213.5,159.5C 212.699,157.958 212.366,156.292 212.5,154.5 Z"/></g>
<g><path style="opacity:1" fill="#eee296" d="M 215.5,134.5 C 216.262,136.262 217.596,137.262 219.5,137.5C 218.886,143.238 217.886,148.905 216.5,154.5C 215.5,154.5 214.5,154.5 213.5,154.5C 215.477,149.954 216.143,145.287 215.5,140.5C 210.107,146.273 204.94,152.273 200,158.5C 199.312,159.332 199.479,159.998 200.5,160.5C 204.014,158.883 207.681,157.883 211.5,157.5C 211.263,156.209 211.596,155.209 212.5,154.5C 212.366,156.292 212.699,157.958 213.5,159.5C 209.414,159.884 205.414,160.717 201.5,162C 200.941,162.725 200.608,163.558 200.5,164.5C 204.911,168.22 209.578,171.72 214.5,175C 209.137,172.822 203.804,170.322 198.5,167.5C 200.362,163.426 199.362,160.426 195.5,158.5C 196.822,158.67 197.989,158.337 199,157.5C 203.9,150.21 209.4,143.376 215.5,137C 211.575,136.643 208.241,137.81 205.5,140.5C 205.5,139.167 205.5,137.833 205.5,136.5C 208.833,135.833 212.167,135.167 215.5,134.5 Z"/></g>
<g><path style="opacity:1" fill="#fefef8" d="M 168.5,151.5 C 168.833,151.5 169.167,151.5 169.5,151.5C 176.048,154.107 182.381,157.274 188.5,161C 189.337,162.011 189.67,163.178 189.5,164.5C 181.404,165.454 173.404,166.787 165.5,168.5C 166.045,162.666 167.045,156.999 168.5,151.5 Z"/></g>
<g><path style="opacity:1" fill="#ede292" d="M 190.5,144.5 C 191.167,144.5 191.833,144.5 192.5,144.5C 193.249,149.248 194.249,153.915 195.5,158.5C 194.391,158.557 193.391,158.89 192.5,159.5C 192.566,154.362 191.9,149.362 190.5,144.5 Z"/></g>
<g><path style="opacity:1" fill="#f1d446" d="M 170.5,146.5 C 171.933,148.518 171.599,150.185 169.5,151.5C 169.167,151.5 168.833,151.5 168.5,151.5C 167.833,151.167 167.167,150.833 166.5,150.5C 166.5,149.167 166.5,147.833 166.5,146.5C 167.833,146.5 169.167,146.5 170.5,146.5 Z"/></g>
<g><path style="opacity:1" fill="#fefdf5" d="M 189.5,144.5 C 189.833,144.5 190.167,144.5 190.5,144.5C 191.9,149.362 192.566,154.362 192.5,159.5C 185.356,157.262 178.69,153.928 172.5,149.5C 177.872,146.989 183.539,145.323 189.5,144.5 Z"/></g>
<g><path style="opacity:1" fill="#ede192" d="M 189.5,140.5 C 189.5,141.833 189.5,143.167 189.5,144.5C 183.539,145.323 177.872,146.989 172.5,149.5C 178.69,153.928 185.356,157.262 192.5,159.5C 190.925,161.114 190.259,163.114 190.5,165.5C 182.044,167.099 173.71,169.099 165.5,171.5C 165.5,170.5 165.5,169.5 165.5,168.5C 173.404,166.787 181.404,165.454 189.5,164.5C 189.67,163.178 189.337,162.011 188.5,161C 182.381,157.274 176.048,154.107 169.5,151.5C 171.599,150.185 171.933,148.518 170.5,146.5C 176.132,145.273 181.799,144.107 187.5,143C 188.066,142.005 188.733,141.172 189.5,140.5 Z"/></g>
<g><path style="opacity:1" fill="#fefef5" d="M 213.5,154.5 C 213.167,154.5 212.833,154.5 212.5,154.5C 211.596,155.209 211.263,156.209 211.5,157.5C 207.681,157.883 204.014,158.883 200.5,160.5C 199.479,159.998 199.312,159.332 200,158.5C 204.94,152.273 210.107,146.273 215.5,140.5C 216.143,145.287 215.477,149.954 213.5,154.5 Z"/></g>
<g><path style="opacity:1" fill="#f1d348" d="M 189.5,139.5 C 190.167,139.5 190.833,139.5 191.5,139.5C 193.167,140.167 194.833,140.833 196.5,141.5C 194.596,141.738 193.262,142.738 192.5,144.5C 191.833,144.5 191.167,144.5 190.5,144.5C 190.167,144.5 189.833,144.5 189.5,144.5C 189.5,143.167 189.5,141.833 189.5,140.5C 189.5,140.167 189.5,139.833 189.5,139.5 Z"/></g>
<g><path style="opacity:1" fill="#f1e491" d="M 201.5,137.5 C 201.5,138.5 201.5,139.5 201.5,140.5C 199.784,140.629 198.117,140.962 196.5,141.5C 194.833,140.833 193.167,140.167 191.5,139.5C 195.085,139.848 198.418,139.181 201.5,137.5 Z"/></g>
<g><path style="opacity:1" fill="#f7faf7" d="M 219.5,137.5 C 221.837,139.965 223.337,142.965 224,146.5C 225.161,155.424 224.161,164.091 221,172.5C 220.329,173.252 219.496,173.586 218.5,173.5C 218.154,168.784 217.487,164.117 216.5,159.5C 217.72,157.716 217.72,156.05 216.5,154.5C 217.886,148.905 218.886,143.238 219.5,137.5 Z"/></g>
<g><path style="opacity:1" fill="#fefef6" d="M 195.5,158.5 C 194.249,153.915 193.249,149.248 192.5,144.5C 193.262,142.738 194.596,141.738 196.5,141.5C 198.117,140.962 199.784,140.629 201.5,140.5C 202.961,141.686 204.295,141.686 205.5,140.5C 208.241,137.81 211.575,136.643 215.5,137C 209.4,143.376 203.9,150.21 199,157.5C 197.989,158.337 196.822,158.67 195.5,158.5 Z"/></g>
<g><path style="opacity:1" fill="#f3d64d" d="M 205.5,136.5 C 205.5,137.833 205.5,139.167 205.5,140.5C 204.295,141.686 202.961,141.686 201.5,140.5C 201.5,139.5 201.5,138.5 201.5,137.5C 202.538,135.481 203.872,135.147 205.5,136.5 Z"/></g>
<g><path style="opacity:1" fill="#eee292" d="M 191.5,139.5 C 190.833,139.5 190.167,139.5 189.5,139.5C 189.213,135.277 188.546,131.11 187.5,127C 187.833,126.5 188.167,126 188.5,125.5C 190.519,129.925 191.519,134.592 191.5,139.5 Z"/></g>
<g><path style="opacity:1" fill="#a6c8df" d="M 98.5,194.5 C 101.287,195.477 104.287,195.81 107.5,195.5C 104.313,196.806 100.98,196.806 97.5,195.5C 97.6236,194.893 97.9569,194.56 98.5,194.5 Z"/></g>
<g><path style="opacity:1" fill="#a0c0da" d="M 139.5,188.5 C 139.5,190.833 139.5,193.167 139.5,195.5C 148.349,195.174 157.016,195.507 165.5,196.5C 156.5,196.5 147.5,196.5 138.5,196.5C 138.194,193.615 138.527,190.948 139.5,188.5 Z"/></g>
</svg>
