<?xml version="1.0"?>
<svg width="256" height="200" xmlns="http://www.w3.org/2000/svg" xmlns:svg="http://www.w3.org/2000/svg" clip-rule="evenodd" fill-rule="evenodd" version="1.1">
 <g class="layer" display="inline">
  <title>Layer 1</title>
  <g id="svg_1"/>
  <g id="svg_3">
   <path d="m151.5,64.5c-9.31,-1.05 -18.64,-1.22 -28,-0.5c-0.54,0.72 -1.21,1.22 -2,1.5c-0.09,-1 0.25,-1.83 1,-2.5c8.67,-0.67 17.33,-0.67 26,0c1.24,0.23 2.24,0.73 3,1.5z" fill="#f6eca1" id="svg_4"/>
  </g>
  <g id="svg_5">
   <path d="m166.5,71.5c2.11,1.28 4.44,2.12 7,2.5c0.75,0.67 1.09,1.5 1,2.5c-1.69,-1.43 -3.69,-2.26 -6,-2.5c-0.88,-0.71 -1.55,-1.54 -2,-2.5z" fill="#fbf8c9" id="svg_6"/>
  </g>
  <g id="svg_7">
   <path d="m190.5,87.5c7.16,-1.16 14.49,-1.32 22,-0.5c-1.65,0.61 -3.32,1.11 -5,1.5c-5.47,-0.99 -11.14,-1.32 -17,-1z" fill="#679cc5" id="svg_8"/>
  </g>
  <g id="svg_9">
   <path d="m190.5,87.5c5.86,-0.32 11.53,0.01 17,1c-5.28,1.54 -10.61,2.87 -16,4c-0.13,-1.72 -0.46,-3.38 -1,-5z" fill="#377ec4" id="svg_10"/>
  </g>
  <g id="svg_11">
   <path d="m113.5,89.5c0,0.67 0.33,1 1,1c0.17,7.67 0,15.34 -0.5,23c-3.82,-3.63 -5.98,-7.97 -6.5,-13c-4.25,-1.43 -6.91,-4.43 -8,-9c0.33,0 0.67,0 1,0c4.19,-1.41 8.52,-2.07 13,-2z" fill="#fefef9" id="svg_12"/>
  </g>
  <g id="svg_13">
   <path d="m132.5,67.5c-0.09,1 0.25,1.83 1,2.5c6.49,3.43 13.15,5.93 20,7.5c4.06,1.68 7.73,1.34 11,-1c0.9,0.79 1.57,1.79 2,3c-3.67,0 -7.33,0 -11,0c-0.16,1.37 0.01,2.71 0.5,4c2.42,3.16 4.58,6.5 6.5,10c2.52,-4.04 4.19,-8.37 5,-13c1.5,0.49 2.83,1.16 4,2c-1,-0.09 -1.83,0.25 -2.5,1c-1.18,4.08 -2.35,8.08 -3.5,12c1.07,2.17 1.57,4.5 1.5,7c-1.25,-2.09 -3.09,-3.09 -5.5,-3c-6.22,0.56 -11.56,2.73 -16,6.5c1.5,1.66 3.16,3.16 5,4.5c-0.33,0.33 -0.67,0.67 -1,1c-2.22,-1.61 -4.56,-2.94 -7,-4c2.1,-1.31 2.43,-2.98 1,-5c5.42,-1.54 10.75,-3.37 16,-5.5c-6.42,-2.7 -12.92,-5.2 -19.5,-7.5c-1.5,0.17 -2.33,1 -2.5,2.5c1.96,3.37 3.62,6.87 5,10.5c-1.11,0.06 -2.11,0.39 -3,1c-0.66,-3.81 -1.83,-7.48 -3.5,-11c-1.49,-1.25 -2.99,-1.25 -4.5,0c-3.76,7.19 -7.76,14.19 -12,21c-1,0 -2,0 -3,0c0,-7.67 0,-15.33 0,-23c0.64,-0.6 0.97,-1.43 1,-2.5c-0.18,-1.38 -0.85,-2.21 -2,-2.5c2.12,-4.08 4.12,-8.25 6,-12.5c-0.34,-1.03 -1,-1.53 -2,-1.5c4.55,-0.45 8.88,-1.79 13,-4z" fill="#eee292" id="svg_14"/>
  </g>
  <g id="svg_15">
   <path d="m129.5,88.5c0.67,0 1,0.33 1,1c-3.62,7.9 -7.79,15.57 -12.5,23c-0.74,-8.03 -0.57,-16.04 0.5,-24c3.67,0 7.33,0 11,0z" fill="#fefef9" id="svg_16"/>
  </g>
  <g id="svg_17">
   <path d="m143.5,102.5c-0.33,0 -0.67,0 -1,0c-1.38,-3.63 -3.04,-7.13 -5,-10.5c0.17,-1.5 1,-2.33 2.5,-2.5c6.58,2.3 13.08,4.8 19.5,7.5c-5.25,2.13 -10.58,3.96 -16,5.5z" fill="#fefef7" id="svg_18"/>
  </g>
  <g id="svg_19">
   <path d="m224.5,92.5c0,-0.33 0,-0.67 0,-1c-0.24,-0.6 -0.74,-0.93 -1.5,-1c-7.27,2.11 -14.44,4.44 -21.5,7c-0.34,-0.84 -1.01,-1.17 -2,-1c11.55,-4.72 23.55,-7.89 36,-9.5c-3.69,1.85 -7.36,3.68 -11,5.5z" fill="#6c99bb" id="svg_20"/>
  </g>
  <g id="svg_21">
   <path d="m90.5,91.5c0.67,0 1.33,0 2,0c0.3,0.65 0.64,1.32 1,2c-2.23,3.12 -3.89,6.45 -5,10c-5.72,-0.86 -11.06,-2.86 -16,-6c-0.89,-0.83 -1.22,-1.83 -1,-3c1.1,-1.1 2.44,-1.77 4,-2c4.96,-0.75 9.96,-1.09 15,-1z" fill="#fefdf5" id="svg_22"/>
  </g>
  <g id="svg_23">
   <path d="m139.5,103.5c-4.8,4.13 -10.13,7.63 -16,10.5c-1.29,0.49 -2.63,0.66 -4,0.5c0,-0.33 0,-0.67 0,-1c4.24,-6.81 8.24,-13.81 12,-21c1.51,-1.25 3.01,-1.25 4.5,0c1.67,3.52 2.84,7.19 3.5,11z" fill="#fefef7" id="svg_24"/>
  </g>
  <g id="svg_25">
   <path d="m151.5,64.5c5.17,1.8 10.17,4.13 15,7c0.45,0.96 1.12,1.79 2,2.5c2.31,0.24 4.31,1.07 6,2.5c0.42,2.94 1.92,5.27 4.5,7c2.11,3.23 3.94,6.56 5.5,10c0,1 0,2 0,3c-1.33,0 -2.67,0 -4,0c-1.99,-5.31 -4.99,-9.97 -9,-14c-1.17,-0.84 -2.5,-1.51 -4,-2c0,-0.67 -0.33,-1 -1,-1c-0.43,-1.21 -1.1,-2.21 -2,-3c-5.09,-3.81 -10.75,-6.48 -17,-8c-2.69,-1.49 -5.69,-2.16 -9,-2c-2.2,0 -4.2,0.34 -6,1c-4.12,2.21 -8.45,3.55 -13,4c-4.45,1.73 -8.45,4.23 -12,7.5c-2.04,1.93 -3.71,4.09 -5,6.5c-1.6,0.79 -2.27,2.12 -2,4c1.05,-0.15 2.05,0.02 3,0.5c-1.24,0.23 -2.24,0.73 -3,1.5c-0.33,0 -0.67,0 -1,0c-0.67,0.67 -1.33,1.33 -2,2c-0.67,0 -1.33,0 -2,0c-0.72,-1.05 -1.72,-1.72 -3,-2c-0.67,0 -1.33,0 -2,0c-4.15,-1.15 -8.48,-1.31 -13,-0.5c-0.92,0.28 -1.58,0.78 -2,1.5c-1.56,0.23 -2.9,0.9 -4,2c-0.81,1.53 -1.48,3.19 -2,5c-0.33,0 -0.67,0 -1,0c-1.6,-0.27 -2.93,0.07 -4,1c-4.82,5.27 -6.48,11.27 -5,18c-3.81,0.5 -7.48,1.5 -11,3c-10.62,2.99 -17.96,9.66 -22,20c-1.82,1.58 -2.82,1.08 -3,-1.5c0.27,-1.53 0.61,-3.03 1,-4.5c3.67,-7 9,-12.33 16,-16c4.65,-1.32 9.32,-2.66 14,-4c0,-1 0,-2 0,-3c0.18,-2.72 0.68,-5.38 1.5,-8c3.41,-3.66 5.91,-7.83 7.5,-12.5c4.72,-0.73 9.05,-2.4 13,-5c6.69,-0.17 13.36,-0.67 20,-1.5c6.02,-9.7 14.36,-16.37 25,-20c0.79,-0.28 1.46,-0.78 2,-1.5c9.36,-0.72 18.69,-0.55 28,0.5z" fill="#f4d444" id="svg_26"/>
  </g>
  <g id="svg_27">
   <path d="m90.5,91.5c-5.04,-0.09 -10.04,0.25 -15,1c0.42,-0.72 1.08,-1.22 2,-1.5c4.52,-0.81 8.85,-0.65 13,0.5z" fill="#f5e992" id="svg_28"/>
  </g>
  <g id="svg_29">
   <path d="m102.5,85.5c0.09,1 -0.25,1.83 -1,2.5c4.02,0.5 8.02,0.33 12,-0.5c0,0.67 0,1.33 0,2c-4.48,-0.07 -8.81,0.59 -13,2c0.76,-0.77 1.76,-1.27 3,-1.5c-0.95,-0.48 -1.95,-0.65 -3,-0.5c-0.27,-1.88 0.4,-3.21 2,-4z" fill="#f2e8a3" id="svg_30"/>
  </g>
  <g id="svg_31">
   <path d="m115.5,85.5c1.15,0.29 1.82,1.12 2,2.5c-0.03,1.07 -0.36,1.9 -1,2.5c-0.67,0 -1.33,0 -2,0c-0.67,0 -1,-0.33 -1,-1c0,-0.67 0,-1.33 0,-2c0,-1.33 0.67,-2 2,-2z" fill="#f3d341" id="svg_32"/>
  </g>
  <g id="svg_33">
   <path d="m145.5,82.5c2.69,-0.16 5.35,0 8,0.5c2.33,3.67 4.67,7.33 7,11c-7.15,-1.78 -14.15,-4.28 -21,-7.5c1.72,-1.85 3.72,-3.19 6,-4z" fill="#fefdf3" id="svg_34"/>
  </g>
  <g id="svg_35">
   <path d="m132.5,80.5c2.09,0.7 4.09,1.7 6,3c0.43,6.24 -2.24,8.24 -8,6c0,-0.67 -0.33,-1 -1,-1c0,-0.67 0,-1.33 0,-2c-0.24,-1.29 0.1,-2.29 1,-3c0.67,-1 1.33,-2 2,-3z" fill="#f5d33e" id="svg_36"/>
  </g>
  <g id="svg_37">
   <path d="m166.5,79.5c0.67,0 1,0.33 1,1c-0.81,4.63 -2.48,8.96 -5,13c-1.92,-3.5 -4.08,-6.84 -6.5,-10c-0.49,-1.29 -0.66,-2.63 -0.5,-4c3.67,0 7.33,0 11,0z" fill="#fefdf4" id="svg_38"/>
  </g>
  <g id="svg_39">
   <path d="m153.5,77.5c1.32,3.29 -0.01,4.63 -4,4c-0.33,-3 1,-4.33 4,-4z" fill="#f3d234" id="svg_40"/>
  </g>
  <g id="svg_41">
   <path d="m130.5,83.5c-0.9,0.71 -1.24,1.71 -1,3c-3.67,0 -7.33,0 -11,0c1.51,-5.36 3.85,-10.36 7,-15c3.33,3.32 4.99,7.32 5,12z" fill="#fefef7" id="svg_42"/>
  </g>
  <g id="svg_43">
   <path d="m138.5,83.5c-1.91,-1.3 -3.91,-2.3 -6,-3c-0.7,-2.92 -1.7,-5.76 -3,-8.5c0.33,-0.5 0.67,-1 1,-1.5c5.99,2.98 11.99,5.98 18,9c-3.27,1.53 -6.6,2.87 -10,4z" fill="#fdfdf6" id="svg_44"/>
  </g>
  <g id="svg_45">
   <path d="m119.5,71.5c1,-0.03 1.66,0.47 2,1.5c-1.88,4.25 -3.88,8.42 -6,12.5c-1.33,0 -2,0.67 -2,2c-3.98,0.83 -7.98,1 -12,0.5c0.75,-0.67 1.09,-1.5 1,-2.5c1.29,-2.41 2.96,-4.57 5,-6.5c3.55,-3.27 7.55,-5.77 12,-7.5z" fill="#fefdf4" id="svg_46"/>
  </g>
  <g id="svg_47">
   <path d="m132.5,67.5c5.04,-0.09 10.04,0.25 15,1c6.25,1.52 11.91,4.19 17,8c-3.27,2.34 -6.94,2.68 -11,1c-6.85,-1.57 -13.51,-4.07 -20,-7.5c-0.75,-0.67 -1.09,-1.5 -1,-2.5z" fill="#fdfdf1" id="svg_48"/>
  </g>
  <g id="svg_49">
   <path d="m132.5,67.5c1.8,-0.66 3.8,-1 6,-1c3.31,-0.16 6.31,0.51 9,2c-4.96,-0.75 -9.96,-1.09 -15,-1z" fill="#f1e37e" id="svg_50"/>
  </g>
  <g id="svg_51">
   <path d="m95.5,93.5c0.67,0 1.33,0 2,0c2.97,3.26 4.97,6.93 6,11c0,0.67 0.33,1 1,1c3.61,2.52 6.27,5.86 8,10c-7.54,-3.1 -15.04,-6.44 -22.5,-10c0.98,-4.3 2.81,-8.3 5.5,-12z" fill="#fefdf5" id="svg_52"/>
  </g>
  <g id="svg_53">
   <path d="m114.5,90.5c0.67,0 1.33,0 2,0c0,7.67 0,15.33 0,23c1,0 2,0 3,0c0,0.33 0,0.67 0,1c-2.45,-0.2 -4.78,0.13 -7,1c-1.73,-4.14 -4.39,-7.48 -8,-10c1,0 2,0 3,0c0,-1.67 0,-3.33 0,-5c0.52,5.03 2.68,9.37 6.5,13c0.5,-7.66 0.67,-15.33 0.5,-23z" fill="#eddf8a" id="svg_54"/>
  </g>
  <g id="svg_55">
   <path d="m165.5,95.5c0,1 0,2 0,3c-1.67,0 -3.33,0 -5,0c0.03,-3.78 1.69,-4.78 5,-3z" fill="#f3d236" id="svg_56"/>
  </g>
  <g id="svg_57">
   <path d="m184.5,93.5c0.93,1.07 1.27,2.4 1,4c-1.91,0.28 -3.58,-0.05 -5,-1c1.33,0 2.67,0 4,0c0,-1 0,-2 0,-3z" fill="#f9f3c4" id="svg_58"/>
  </g>
  <g id="svg_59">
   <path d="m99.5,91.5c1.09,4.57 3.75,7.57 8,9c-1.33,0 -2.67,0 -4,0c0,1.33 0,2.67 0,4c-1.03,-4.07 -3.03,-7.74 -6,-11c0.67,-0.67 1.33,-1.33 2,-2z" fill="#efe393" id="svg_60"/>
  </g>
  <g id="svg_61">
   <path d="m68.5,99.5c0.33,0 0.67,0 1,0c5.78,1.22 11.12,3.56 16,7c-2.83,5.67 -6.17,11.01 -10,16c-2.2,-2.95 -3.2,-6.28 -3,-10c0.24,-1.29 -0.1,-2.29 -1,-3c-1.75,-3.03 -2.75,-6.37 -3,-10z" fill="#fefef9" id="svg_62"/>
  </g>
  <g id="svg_63">
   <path d="m64.5,100.5c1,-0.09 1.83,0.25 2.5,1c0.18,4.19 0.68,8.19 1.5,12c2.48,2.78 3.48,6.11 3,10c-0.34,0.84 -1.01,1.17 -2,1c-3.3,-1.98 -6.63,-3.98 -10,-6c-1.48,-6.73 0.18,-12.73 5,-18z" fill="#fefdf1" id="svg_64"/>
  </g>
  <g id="svg_65">
   <path d="m107.5,100.5c0,1.67 0,3.33 0,5c-1,0 -2,0 -3,0c-0.67,0 -1,-0.33 -1,-1c0,-1.33 0,-2.67 0,-4c1.33,0 2.67,0 4,0z" fill="#f2d345" id="svg_66"/>
  </g>
  <g id="svg_67">
   <path d="m224.5,91.5c0,0.33 0,0.67 0,1c-10,4.66 -19.33,10.33 -28,17c-0.34,-0.84 -1.01,-1.17 -2,-1c9.02,-7.18 19.02,-12.85 30,-17z" fill="#4680b8" id="svg_68"/>
  </g>
  <g id="svg_69">
   <path d="m142.5,102.5c0.33,0 0.67,0 1,0c1.43,2.02 1.1,3.69 -1,5c-0.67,0 -1.33,0 -2,0c-0.73,-1.21 -1.07,-2.54 -1,-4c0.89,-0.61 1.89,-0.94 3,-1z" fill="#f3d336" id="svg_70"/>
  </g>
  <g id="svg_71">
   <path d="m64.5,100.5c1.07,-0.93 2.4,-1.27 4,-1c0.25,3.63 1.25,6.97 3,10c-1,0 -2,0 -3,0c0,1.33 0,2.67 0,4c-0.82,-3.81 -1.32,-7.81 -1.5,-12c-0.67,-0.75 -1.5,-1.09 -2.5,-1z" fill="#f0e38e" id="svg_72"/>
  </g>
  <g id="svg_73">
   <path d="m189.5,105.5c0.67,0 1,0.33 1,1c-7.23,3.58 -13.9,7.91 -20,13c-4.14,0.54 -4.81,-0.46 -2,-3c6.84,-3.92 13.84,-7.59 21,-11z" fill="#4983bb" id="svg_74"/>
  </g>
  <g id="svg_75">
   <path d="m71.5,109.5c0.9,0.71 1.24,1.71 1,3c-1.21,0.73 -2.54,1.07 -4,1c0,-1.33 0,-2.67 0,-4c1,0 2,0 3,0z" fill="#f3d646" id="svg_76"/>
  </g>
  <g id="svg_77">
   <path d="m224.5,91.5c-10.98,4.15 -20.98,9.82 -30,17c-7.9,4.9 -15.24,10.57 -22,17c-0.37,-2.6 -1.03,-4.6 -2,-6c6.1,-5.09 12.77,-9.42 20,-13c3.15,-2.08 6.48,-3.91 10,-5.5c-4.1,0.38 -7.77,1.88 -11,4.5c-7.16,3.41 -14.16,7.08 -21,11c-1.42,-1.81 -3.42,-2.47 -6,-2c12.35,-7 25.35,-12.67 39,-17c7.06,-2.56 14.23,-4.89 21.5,-7c0.76,0.07 1.26,0.4 1.5,1z" fill="#eef6f8" id="svg_78"/>
  </g>
  <g id="svg_79">
   <path d="m190.5,106.5c0,-0.67 -0.33,-1 -1,-1c3.23,-2.62 6.9,-4.12 11,-4.5c-3.52,1.59 -6.85,3.42 -10,5.5z" fill="#7ea3bb" id="svg_80"/>
  </g>
  <g id="svg_81">
   <path d="m139.5,103.5c-0.07,1.46 0.27,2.79 1,4c-6.3,2.57 -12.47,5.57 -18.5,9c-0.68,3.46 0.82,5.46 4.5,6c1.33,0.67 1.33,1.33 0,2c-2.03,-1.06 -4.03,-2.06 -6,-3c0.2,-2.45 -0.13,-4.78 -1,-7c1.37,0.16 2.71,-0.01 4,-0.5c5.87,-2.87 11.2,-6.37 16,-10.5z" fill="#ecdf8e" id="svg_82"/>
  </g>
  <g id="svg_83">
   <path d="m119.5,114.5c0.87,2.22 1.2,4.55 1,7c-1.64,1.58 -3.64,2.25 -6,2c-0.67,-0.33 -1.33,-0.67 -2,-1c-1.19,-2.37 -1.19,-4.71 0,-7c2.22,-0.87 4.55,-1.2 7,-1z" fill="#f5d13c" id="svg_84"/>
  </g>
  <g id="svg_85">
   <path d="m140.5,107.5c0.67,0 1.33,0 2,0c-0.9,2.89 -1.24,5.89 -1,9c-1,0 -2,0 -3,0c0.67,-3 1.33,-6 2,-9z" fill="#f5eebd" id="svg_86"/>
  </g>
  <g id="svg_87">
   <path d="m54.5,112.5c0,1 0,2 0,3c-4.68,1.34 -9.35,2.68 -14,4c4.68,-2.33 9.34,-4.67 14,-7z" fill="#f4e382" id="svg_88"/>
  </g>
  <g id="svg_89">
   <path d="m59.5,118.5c3.37,2.02 6.7,4.02 10,6c-0.67,0 -1,0.33 -1,1c-2.8,-1.23 -5.47,-2.73 -8,-4.5c-2,-0.67 -4,-0.67 -6,0c-3.05,3.18 -5.39,6.68 -7,10.5c0,-1.33 0,-2.67 0,-4c-1.33,0 -2.67,0 -4,0c3.26,-0.73 5.93,-2.56 8,-5.5c-0.95,-0.48 -1.95,-0.65 -3,-0.5c3.52,-1.5 7.19,-2.5 11,-3z" fill="#eee190" id="svg_90"/>
  </g>
  <g id="svg_91">
   <path d="m68.5,125.5c-0.79,2.93 -2.79,4.77 -6,5.5c-7.28,1.74 -14.28,4.24 -21,7.5c-1.02,-0.5 -1.19,-1.17 -0.5,-2c1.8,-2.33 3.97,-3.99 6.5,-5c1.61,-3.82 3.95,-7.32 7,-10.5c2,-0.67 4,-0.67 6,0c2.53,1.77 5.2,3.27 8,4.5z" fill="#fefef8" id="svg_92"/>
  </g>
  <g id="svg_93">
   <path d="m71.5,123.5c2.71,-0.31 5.04,0.35 7,2c0.22,6.97 -2.61,8.64 -8.5,5c-0.2,-1.88 -0.7,-3.55 -1.5,-5c0,-0.67 0.33,-1 1,-1c0.99,0.17 1.66,-0.16 2,-1z" fill="#f4d33d" id="svg_94"/>
  </g>
  <g id="svg_95">
   <path d="m48.5,121.5c1.05,-0.15 2.05,0.02 3,0.5c-2.07,2.94 -4.74,4.77 -8,5.5c-0.96,4.92 -3.63,8.59 -8,11c-0.93,1.07 -1.27,2.4 -1,4c-3.33,2.67 -6.33,5.67 -9,9c-0.65,-0.77 -0.98,-1.77 -1,-3c0.39,-2.43 1.05,-4.77 2,-7c4.04,-10.34 11.38,-17.01 22,-20z" fill="#fefdf1" id="svg_96"/>
  </g>
  <g id="svg_97">
   <path d="m112.5,122.5c0.67,0.33 1.33,0.67 2,1c-1.1,4.21 -2.77,8.21 -5,12c-0.33,-0.33 -0.67,-0.67 -1,-1c1.54,-3.96 2.88,-7.96 4,-12z" fill="#ede095" id="svg_98"/>
  </g>
  <g id="svg_99">
   <path d="m199.5,96.5c0.99,-0.17 1.66,0.16 2,1c-13.65,4.33 -26.65,10 -39,17c-30.91,14.4 -57.75,34.4 -80.5,60c-4.75,6.49 -9.25,13.16 -13.5,20c-11.52,2.67 -22.19,0.84 -32,-5.5c-1.32,-0.82 -1.99,-1.98 -2,-3.5c0.67,-0.67 1.33,-1.33 2,-2c3.21,2.77 6.88,4.77 11,6c2.01,1.42 4.35,2.09 7,2c3.35,0.16 6.68,0 10,-0.5c16.81,-25.81 38.47,-46.47 65,-62c21.99,-13.61 45.32,-24.45 70,-32.5z" fill="#3c85ca" id="svg_100"/>
  </g>
  <g id="svg_101">
   <path d="m72.5,151.5c-0.67,0.67 -1.33,1.33 -2,2c-4.9,0.72 -9.56,2.06 -14,4c0,-0.33 0,-0.67 0,-1c-0.15,-1.05 0.02,-2.05 0.5,-3c4.94,-6.89 10.1,-13.55 15.5,-20c1.29,6.05 1.29,12.05 0,18z" fill="#fefdf5" id="svg_102"/>
  </g>
  <g id="svg_103">
   <path d="m156.5,124.5c5.43,-0.69 6.1,0.48 2,3.5c-4.37,2.86 -8.37,6.19 -12,10c-1.76,0.8 -3.43,0.63 -5,-0.5c5.26,-4.12 10.26,-8.45 15,-13z" fill="#4185c7" id="svg_104"/>
  </g>
  <g id="svg_105">
   <path d="m24.5,135.5c-0.39,1.47 -0.73,2.97 -1,4.5c0.18,2.58 1.18,3.08 3,1.5c-0.95,2.23 -1.61,4.57 -2,7c0.02,1.23 0.35,2.23 1,3c0,0.67 0,1.33 0,2c0,0.67 0,1.33 0,2c-1.52,-3.03 -2.35,-6.37 -2.5,-10c-0.77,-1.1 -1.6,-1.1 -2.5,0c-0.16,-1.37 0.01,-2.71 0.5,-4c0.88,-2.26 2.04,-4.26 3.5,-6z" fill="#f4dd6a" id="svg_106"/>
  </g>
  <g id="svg_107">
   <path d="m92.5,91.5c1.28,0.28 2.28,0.95 3,2c-2.69,3.7 -4.52,7.7 -5.5,12c7.46,3.56 14.96,6.9 22.5,10c-1.19,2.29 -1.19,4.63 0,7c-2.91,-1.07 -5.91,-1.24 -9,-0.5c-7.94,2.15 -15.94,3.99 -24,5.5c-0.16,1.37 0.01,2.71 0.5,4c3.14,3.49 6.97,5.66 11.5,6.5c0.69,2.7 2.19,4.86 4.5,6.5c0.69,0.83 0.52,1.5 -0.5,2c-2.6,-1.95 -5.27,-3.62 -8,-5c-2.56,-3.39 -5.73,-6.39 -9.5,-9c-0.41,0.46 -0.91,0.79 -1.5,1c-1,5.96 -1.33,11.96 -1,18c-1,0 -2,0 -3,0c1.29,-5.95 1.29,-11.95 0,-18c-5.4,6.45 -10.56,13.11 -15.5,20c-0.48,0.95 -0.65,1.95 -0.5,3c-0.84,-0.34 -1.17,-1.01 -1,-2c3.74,-7.13 8.24,-13.79 13.5,-20c0.48,-0.95 0.65,-1.95 0.5,-3c-9.7,2.51 -19.36,5.17 -29,8c-0.16,1.37 0.01,2.71 0.5,4c3.05,3.54 5.88,7.21 8.5,11c-0.67,1 -1.33,2 -2,3c0.16,-1.37 -0.01,-2.71 -0.5,-4c-2.51,-3.03 -5.01,-6.03 -7.5,-9c-1.67,-0.67 -3.33,-1.33 -5,-2c-0.27,-1.6 0.07,-2.93 1,-4c4.37,-2.41 7.04,-6.08 8,-11c1.33,0 2.67,0 4,0c0,1.33 0,2.67 0,4c-2.53,1.01 -4.7,2.67 -6.5,5c-0.69,0.83 -0.52,1.5 0.5,2c6.72,-3.26 13.72,-5.76 21,-7.5c3.21,-0.73 5.21,-2.57 6,-5.5c0.8,1.45 1.3,3.12 1.5,5c5.89,3.64 8.72,1.97 8.5,-5c-1.96,-1.65 -4.29,-2.31 -7,-2c0.48,-3.89 -0.52,-7.22 -3,-10c1.46,0.07 2.79,-0.27 4,-1c-0.2,3.72 0.8,7.05 3,10c3.83,-4.99 7.17,-10.33 10,-16c-4.88,-3.44 -10.22,-5.78 -16,-7c0.52,-1.81 1.19,-3.47 2,-5c-0.22,1.17 0.11,2.17 1,3c4.94,3.14 10.28,5.14 16,6c1.11,-3.55 2.77,-6.88 5,-10c-0.36,-0.68 -0.7,-1.35 -1,-2z" fill="#ede08e" id="svg_108"/>
  </g>
  <g id="svg_109">
   <path d="m87.5,141.5c0,-1 0,-2 0,-3c1.85,-0.28 3.18,0.39 4,2c-1.19,0.93 -2.52,1.26 -4,1z" fill="#f6d435" id="svg_110"/>
  </g>
  <g id="svg_111">
   <path d="m35.5,138.5c1.33,0 2.67,0 4,0c0,1.33 0,2.67 0,4c-1.33,0 -2.67,0 -4,0c0,-1.33 0,-2.67 0,-4z" fill="#f4d237" id="svg_112"/>
  </g>
  <g id="svg_113">
   <path d="m55.5,154.5c-2,0 -4,0 -6,0c-2.62,-3.79 -5.45,-7.46 -8.5,-11c-0.49,-1.29 -0.66,-2.63 -0.5,-4c9.64,-2.83 19.3,-5.49 29,-8c0.15,1.05 -0.02,2.05 -0.5,3c-5.26,6.21 -9.76,12.87 -13.5,20z" fill="#fefef8" id="svg_114"/>
  </g>
  <g id="svg_115">
   <path d="m43.5,127.5c1.33,0 2.67,0 4,0c0,1.33 0,2.67 0,4c-1.33,0 -2.67,0 -4,0c0,-1.33 0,-2.67 0,-4z" fill="#f5d436" id="svg_116"/>
  </g>
  <g id="svg_117">
   <path d="m78.5,125.5c1.74,-6.14 4.57,-11.81 8.5,-17c0.56,-0.52 1.23,-0.86 2,-1c6.91,3.71 14.08,6.71 21.5,9c0,1 0,2 0,3c-10.78,1.37 -21.45,3.37 -32,6z" fill="#fefdf9" id="svg_118"/>
  </g>
  <g id="svg_119">
   <path d="m131.5,145.5c2.1,-0.3 4.1,0.03 6,1c-4.24,4.82 -8.24,9.82 -12,15c-2.61,1.15 -5.27,1.32 -8,0.5c4.88,-5.37 9.54,-10.87 14,-16.5z" fill="#3a83c8" id="svg_120"/>
  </g>
  <g id="svg_121">
   <path d="m25.5,155.5c0,-0.67 0,-1.33 0,-2c2.96,-2.46 5.8,-5.13 8.5,-8c0.5,3.32 0.66,6.65 0.5,10c-3,0 -6,0 -9,0z" fill="#fefef7" id="svg_122"/>
  </g>
  <g id="svg_123">
   <path d="m39.5,144.5c2.49,2.97 4.99,5.97 7.5,9c0.49,1.29 0.66,2.63 0.5,4c-3.61,0.29 -7.11,-0.04 -10.5,-1c-0.67,-2.67 -0.67,-5.33 0,-8c0.12,-1.94 0.95,-3.27 2.5,-4z" fill="#fdfdf5" id="svg_124"/>
  </g>
  <g id="svg_125">
   <path d="m34.5,142.5c1.67,0.67 3.33,1.33 5,2c-1.55,0.73 -2.38,2.06 -2.5,4c-0.67,2.67 -0.67,5.33 0,8c3.39,0.96 6.89,1.29 10.5,1c0,1 0,2 0,3c-3.94,-0.83 -7.94,-1.49 -12,-2c-1.31,5.92 -1.98,11.92 -2,18c-1.6,0.27 -2.93,-0.07 -4,-1c1.15,-0.29 1.82,-1.12 2,-2.5c0.78,-5.16 1.44,-10.33 2,-15.5c-3,0 -6,0 -9,0c0.33,-0.67 0.67,-1.33 1,-2c3,0 6,0 9,0c0.16,-3.35 0,-6.68 -0.5,-10c-2.7,2.87 -5.54,5.54 -8.5,8c0,-0.67 0,-1.33 0,-2c2.67,-3.33 5.67,-6.33 9,-9z" fill="#efe39e" id="svg_126"/>
  </g>
  <g id="svg_127">
   <path d="m20.5,145.5c-0.07,2.93 -0.73,5.59 -2,8c-0.21,-3 0.46,-5.66 2,-8z" fill="#fcf7bf" id="svg_128"/>
  </g>
  <g id="svg_129">
   <path d="m76.5,151.5c15.74,-0.24 15.74,0.76 0,3c0,-1 0,-2 0,-3z" fill="#eee296" id="svg_130"/>
  </g>
  <g id="svg_131">
   <path d="m72.5,151.5c1,0 2,0 3,0c0.33,0 0.67,0 1,0c0,1 0,2 0,3c-0.89,0.61 -1.89,0.94 -3,1c-0.33,0 -0.67,0 -1,0c-0.67,-0.67 -1.33,-1.33 -2,-2c0.67,-0.67 1.33,-1.33 2,-2z" fill="#f1d23d" id="svg_132"/>
  </g>
  <g id="svg_133">
   <path d="m49.5,154.5c2,0 4,0 6,0c-0.17,0.99 0.16,1.66 1,2c0,0.33 0,0.67 0,1c0,5.31 -2.66,7.31 -8,6c0.24,-1.29 -0.1,-2.29 -1,-3c0,-1 0,-2 0,-3c0.67,-1 1.33,-2 2,-3z" fill="#f4d33d" id="svg_134"/>
  </g>
  <g id="svg_135">
   <path d="m24.5,157.5c3,0 6,0 9,0c-0.56,5.17 -1.22,10.34 -2,15.5c-0.18,1.38 -0.85,2.21 -2,2.5c-2.9,-5.6 -4.57,-11.6 -5,-18z" fill="#fefef6" id="svg_136"/>
  </g>
  <g id="svg_137">
   <path d="m47.5,160.5c-2.85,6.86 -7.52,12.19 -14,16c0.02,-6.08 0.69,-12.08 2,-18c4.06,0.51 8.06,1.17 12,2z" fill="#fefef8" id="svg_138"/>
  </g>
  <g id="svg_139">
   <path d="m76.5,154.5c0.32,3.4 -0.01,6.73 -1,10c-0.75,-3.03 -1.42,-6.03 -2,-9c1.11,-0.06 2.11,-0.39 3,-1z" fill="#f0e6a2" id="svg_140"/>
  </g>
  <g id="svg_141">
   <path d="m20.5,165.5c1.37,2.44 2.37,5.1 3,8c-2.15,-2.12 -3.15,-4.78 -3,-8z" fill="#f9f1ac" id="svg_142"/>
  </g>
  <g id="svg_143">
   <path d="m25.5,155.5c-0.33,0.67 -0.67,1.33 -1,2c0.43,6.4 2.1,12.4 5,18c1.07,0.93 2.4,1.27 4,1c1,1 2,2 3,3c0,0.67 0,1.33 0,2c0,0.67 0,1.33 0,2c-0.67,0.67 -1.33,1.33 -2,2c-5.64,1.53 -8.14,-0.8 -7.5,-7c-1.67,-1.35 -2.84,-3.01 -3.5,-5c-0.63,-2.9 -1.63,-5.56 -3,-8c-0.5,-3.52 -1.5,-6.85 -3,-10c0.04,-0.92 0.38,-1.58 1,-2c1.27,-2.41 1.93,-5.07 2,-8c0.9,-1.1 1.73,-1.1 2.5,0c0.15,3.63 0.98,6.97 2.5,10z" fill="#f3d446" id="svg_144"/>
  </g>
  <g id="svg_145">
   <path d="m107.5,195.5c-3.21,0.31 -6.21,-0.02 -9,-1c3.47,-7.6 7.47,-14.93 12,-22c2.24,-0.97 4.58,-1.31 7,-1c-3.37,8.06 -6.7,16.06 -10,24z" fill="#3885cd" id="svg_146"/>
  </g>
  <g id="svg_147">
   <path d="m70.5,153.5c0.67,0.67 1.33,1.33 2,2c-4.95,1.12 -9.95,2.12 -15,3c-0.22,1.18 0.11,2.18 1,3c4.33,2.67 8.67,5.33 13,8c-0.33,0.33 -0.67,0.67 -1,1c-4.94,-2.64 -9.94,-4.97 -15,-7c0.82,4.3 2.32,8.3 4.5,12c0.87,2.99 1.2,5.99 1,9c-1.43,-7.12 -5.26,-8.79 -11.5,-5c0,-1 0,-2 0,-3c2.03,0.16 4.03,0 6,-0.5c0.73,-3.63 0.06,-7.13 -2,-10.5c-1.57,-1.13 -3.24,-1.3 -5,-0.5c-4.99,4.14 -8.99,8.98 -12,14.5c-1,-1 -2,-2 -3,-3c6.48,-3.81 11.15,-9.14 14,-16c0.9,0.71 1.24,1.71 1,3c5.34,1.31 8,-0.69 8,-6c4.44,-1.94 9.1,-3.28 14,-4z" fill="#eee298" id="svg_148"/>
  </g>
  <g id="svg_149">
   <path d="m49.5,176.5c-1.29,-0.24 -2.29,0.1 -3,1c-3.26,0.88 -6.59,1.54 -10,2c3.01,-5.52 7.01,-10.36 12,-14.5c1.76,-0.8 3.43,-0.63 5,0.5c2.06,3.37 2.73,6.87 2,10.5c-1.97,0.5 -3.97,0.66 -6,0.5z" fill="#fefef7" id="svg_150"/>
  </g>
  <g id="svg_151">
   <path d="m49.5,176.5c0,1 0,2 0,3c-1,1.33 -2,1.33 -3,0c0,-0.67 0,-1.33 0,-2c0.71,-0.9 1.71,-1.24 3,-1z" fill="#f1d965" id="svg_152"/>
  </g>
  <g id="svg_153">
   <path d="m46.5,177.5c0,0.67 0,1.33 0,2c-3.44,0.29 -6.77,0.95 -10,2c0,-0.67 0,-1.33 0,-2c3.41,-0.46 6.74,-1.12 10,-2z" fill="#efe4a3" id="svg_154"/>
  </g>
  <g id="svg_155">
   <path d="m47.5,189.5c2.65,-0.09 4.99,0.58 7,2c-2.65,0.09 -4.99,-0.58 -7,-2z" fill="#a7cee1" id="svg_156"/>
  </g>
  <g id="svg_157">
   <path d="m165.5,196.5c-8.48,-0.99 -17.15,-1.33 -26,-1c0,-2.33 0,-4.67 0,-7c2.5,-18.66 9.66,-35.33 21.5,-50c3.67,-4.5 7.5,-8.84 11.5,-13c6.76,-6.43 14.1,-12.1 22,-17c0.99,-0.17 1.66,0.16 2,1c-25.22,17.47 -42.39,40.8 -51.5,70c-0.5,4.01 -1,8.01 -1.5,12c7.34,0.17 14.67,0 22,-0.5c0.56,-0.38 0.89,-0.88 1,-1.5c0.33,0 0.67,0 1,0c1,0 2,0 3,0c1.49,1.78 3.49,2.45 6,2c11.27,1.35 21.94,-0.48 32,-5.5c2.5,-1.33 4.5,-3.16 6,-5.5c0.63,-2.43 1.63,-4.77 3,-7c0.33,0 0.67,0 1,0c1,0.09 1.83,-0.25 2.5,-1c3.16,-8.41 4.16,-17.08 3,-26c-0.66,-3.53 -2.16,-6.53 -4.5,-9c-1.9,-0.24 -3.24,-1.24 -4,-3c-0.12,-3.65 -1.79,-6.48 -5,-8.5c-4.78,-2.98 -9.78,-5.48 -15,-7.5c7.27,-7.11 15.27,-12.94 24,-17.5c-5.55,5.05 -10.55,10.55 -15,16.5c6.94,4.11 13.44,8.78 19.5,14c1.03,5.06 2.36,10.06 4,15c0.67,6 0.67,12 0,18c-3.9,15.9 -14.06,26.06 -30.5,30.5c-8.67,0.33 -17.33,0.67 -26,1c-1.87,1.8 -3.87,1.97 -6,0.5z" fill="#3c85cd" id="svg_158"/>
  </g>
  <g id="svg_159">
   <path d="m214.5,180.5c-1.5,2.34 -3.5,4.17 -6,5.5c-10.06,5.02 -20.73,6.85 -32,5.5c5.96,-3.13 12.29,-5.47 19,-7c1.6,0.27 2.93,-0.07 4,-1c4.71,-1.89 9.71,-2.89 15,-3z" fill="#fafcf7" id="svg_160"/>
  </g>
  <g id="svg_161">
   <path d="m214.5,180.5c-5.29,0.11 -10.29,1.11 -15,3c0,-1 0,-2 0,-3c3.84,-0.58 7.67,-1.25 11.5,-2c1.68,0.11 2.85,0.78 3.5,2z" fill="#f1e69c" id="svg_162"/>
  </g>
  <g id="svg_163">
   <path d="m195.5,179.5c0.67,0 1.33,0 2,0c0.67,0.33 1.33,0.67 2,1c0,1 0,2 0,3c-1.07,0.93 -2.4,1.27 -4,1c-0.73,-1.21 -1.07,-2.54 -1,-4c0.67,0 1,-0.33 1,-1z" fill="#f1d443" id="svg_164"/>
  </g>
  <g id="svg_165">
   <path d="m190.5,165.5c1,1 2,2 3,3c-0.74,-0.13 -1.41,0.04 -2,0.5c-5.82,6.65 -11.82,13.15 -18,19.5c0.87,1.08 1.87,1.25 3,0.5c6.44,-2.19 12.44,-5.02 18,-8.5c-0.07,1.46 0.27,2.79 1,4c-6.71,1.53 -13.04,3.87 -19,7c-2.51,0.45 -4.51,-0.22 -6,-2c4.69,-6.01 9.86,-11.68 15.5,-17c1.75,-2.23 3.25,-4.57 4.5,-7z" fill="#ece091" id="svg_166"/>
  </g>
  <g id="svg_167">
   <path d="m194.5,168.5c0.67,0 1.33,0 2,0c0.22,3.68 0.56,7.35 1,11c-0.67,0 -1.33,0 -2,0c0.18,-3.73 -0.16,-7.4 -1,-11z" fill="#ece097" id="svg_168"/>
  </g>
  <g id="svg_169">
   <path d="m165.5,168.5c0,1 0,2 0,3c0,0.67 -0.33,1 -1,1c-1.33,0 -2.67,0 -4,0c-0.12,-3.41 1.55,-4.74 5,-4z" fill="#f1d141" id="svg_170"/>
  </g>
  <g id="svg_171">
   <path d="m193.5,168.5c0.33,0 0.67,0 1,0c0.84,3.6 1.18,7.27 1,11c0,0.67 -0.33,1 -1,1c-5.56,3.48 -11.56,6.31 -18,8.5c-1.13,0.75 -2.13,0.58 -3,-0.5c6.18,-6.35 12.18,-12.85 18,-19.5c0.59,-0.46 1.26,-0.63 2,-0.5z" fill="#fefdf6" id="svg_172"/>
  </g>
  <g id="svg_173">
   <path d="m213.5,159.5c0.33,0 0.67,0 1,0c1.17,4.75 2.17,9.42 3,14c-1.37,2.23 -2.37,4.57 -3,7c-0.65,-1.22 -1.82,-1.89 -3.5,-2c-3.83,0.75 -7.66,1.42 -11.5,2c-0.67,-0.33 -1.33,-0.67 -2,-1c-0.44,-3.65 -0.78,-7.32 -1,-11c0.67,-0.33 1.33,-0.67 2,-1c5.3,2.82 10.64,5.32 16,7.5c-4.92,-3.28 -9.59,-6.78 -14,-10.5c0.11,-0.94 0.44,-1.78 1,-2.5c3.91,-1.28 7.91,-2.12 12,-2.5z" fill="#fcfcf5" id="svg_174"/>
  </g>
  <g id="svg_175">
   <path d="m190.5,165.5c-1.25,2.43 -2.75,4.77 -4.5,7c-5.64,5.32 -10.81,10.99 -15.5,17c-1,0 -2,0 -3,0c-0.37,-5.78 -1.37,-11.45 -3,-17c0.67,0 1,-0.33 1,-1c8.21,-2.4 16.54,-4.4 25,-6z" fill="#fefdf7" id="svg_176"/>
  </g>
  <g id="svg_177">
   <path d="m166.5,150.5c0.67,0.33 1.33,0.67 2,1c-1.46,5.5 -2.46,11.17 -3,17c-3.45,-0.74 -5.12,0.59 -5,4c1.33,0 2.67,0 4,0c1.63,5.55 2.63,11.22 3,17c-0.33,0 -0.67,0 -1,0c-1.29,-4.84 -2.46,-9.84 -3.5,-15c-0.89,-0.58 -1.89,-0.91 -3,-1c-7.65,2.94 -8.15,2.28 -1.5,-2c0.44,-2.78 0.44,-5.45 0,-8c0.98,1.48 2.15,2.81 3.5,4c2.09,-5.52 3.59,-11.18 4.5,-17z" fill="#eee49b" id="svg_178"/>
  </g>
  <g id="svg_179">
   <path d="m214.5,159.5c0.67,0 1.33,0 2,0c0.99,4.62 1.65,9.28 2,14c-0.33,0 -0.67,0 -1,0c-0.83,-4.58 -1.83,-9.25 -3,-14z" fill="#ecde88" id="svg_180"/>
  </g>
  <g id="svg_181">
   <path d="m195.5,158.5c3.86,1.93 4.86,4.93 3,9c-0.67,0.33 -1.33,0.67 -2,1c-0.67,0 -1.33,0 -2,0c-0.33,0 -0.67,0 -1,0c-1,-1 -2,-2 -3,-3c-0.24,-2.39 0.43,-4.39 2,-6c0.89,-0.61 1.89,-0.94 3,-1z" fill="#f4d238" id="svg_182"/>
  </g>
  <g id="svg_183">
   <path d="m212.5,154.5c0.33,0 0.67,0 1,0c1,0 2,0 3,0c1.22,1.55 1.22,3.22 0,5c-0.67,0 -1.33,0 -2,0c-0.33,0 -0.67,0 -1,0c-0.8,-1.54 -1.13,-3.21 -1,-5z" fill="#f3d541" id="svg_184"/>
  </g>
  <g id="svg_185">
   <path d="m215.5,134.5c0.76,1.76 2.1,2.76 4,3c-0.61,5.74 -1.61,11.41 -3,17c-1,0 -2,0 -3,0c1.98,-4.55 2.64,-9.21 2,-14c-5.39,5.77 -10.56,11.77 -15.5,18c-0.69,0.83 -0.52,1.5 0.5,2c3.51,-1.62 7.18,-2.62 11,-3c-0.24,-1.29 0.1,-2.29 1,-3c-0.13,1.79 0.2,3.46 1,5c-4.09,0.38 -8.09,1.22 -12,2.5c-0.56,0.72 -0.89,1.56 -1,2.5c4.41,3.72 9.08,7.22 14,10.5c-5.36,-2.18 -10.7,-4.68 -16,-7.5c1.86,-4.07 0.86,-7.07 -3,-9c1.32,0.17 2.49,-0.16 3.5,-1c4.9,-7.29 10.4,-14.12 16.5,-20.5c-3.93,-0.36 -7.26,0.81 -10,3.5c0,-1.33 0,-2.67 0,-4c3.33,-0.67 6.67,-1.33 10,-2z" fill="#eee296" id="svg_186"/>
  </g>
  <g id="svg_187">
   <path d="m168.5,151.5c0.33,0 0.67,0 1,0c6.55,2.61 12.88,5.77 19,9.5c0.84,1.01 1.17,2.18 1,3.5c-8.1,0.95 -16.1,2.29 -24,4c0.54,-5.83 1.54,-11.5 3,-17z" fill="#fefef8" id="svg_188"/>
  </g>
  <g id="svg_189">
   <path d="m190.5,144.5c0.67,0 1.33,0 2,0c0.75,4.75 1.75,9.41 3,14c-1.11,0.06 -2.11,0.39 -3,1c0.07,-5.14 -0.6,-10.14 -2,-15z" fill="#ede292" id="svg_190"/>
  </g>
  <g id="svg_191">
   <path d="m170.5,146.5c1.43,2.02 1.1,3.69 -1,5c-0.33,0 -0.67,0 -1,0c-0.67,-0.33 -1.33,-0.67 -2,-1c0,-1.33 0,-2.67 0,-4c1.33,0 2.67,0 4,0z" fill="#f1d446" id="svg_192"/>
  </g>
  <g id="svg_193">
   <path d="m189.5,144.5c0.33,0 0.67,0 1,0c1.4,4.86 2.07,9.86 2,15c-7.14,-2.24 -13.81,-5.57 -20,-10c5.37,-2.51 11.04,-4.18 17,-5z" fill="#fefdf5" id="svg_194"/>
  </g>
  <g id="svg_195">
   <path d="m189.5,140.5c0,1.33 0,2.67 0,4c-5.96,0.82 -11.63,2.49 -17,5c6.19,4.43 12.86,7.76 20,10c-1.57,1.61 -2.24,3.61 -2,6c-8.46,1.6 -16.79,3.6 -25,6c0,-1 0,-2 0,-3c7.9,-1.71 15.9,-3.05 24,-4c0.17,-1.32 -0.16,-2.49 -1,-3.5c-6.12,-3.73 -12.45,-6.89 -19,-9.5c2.1,-1.31 2.43,-2.98 1,-5c5.63,-1.23 11.3,-2.39 17,-3.5c0.57,-1 1.23,-1.83 2,-2.5z" fill="#ede192" id="svg_196"/>
  </g>
  <g id="svg_197">
   <path d="m213.5,154.5c-0.33,0 -0.67,0 -1,0c-0.9,0.71 -1.24,1.71 -1,3c-3.82,0.38 -7.49,1.38 -11,3c-1.02,-0.5 -1.19,-1.17 -0.5,-2c4.94,-6.23 10.11,-12.23 15.5,-18c0.64,4.79 -0.02,9.45 -2,14z" fill="#fefef5" id="svg_198"/>
  </g>
  <g id="svg_199">
   <path d="m189.5,139.5c0.67,0 1.33,0 2,0c1.67,0.67 3.33,1.33 5,2c-1.9,0.24 -3.24,1.24 -4,3c-0.67,0 -1.33,0 -2,0c-0.33,0 -0.67,0 -1,0c0,-1.33 0,-2.67 0,-4c0,-0.33 0,-0.67 0,-1z" fill="#f1d348" id="svg_200"/>
  </g>
  <g id="svg_201">
   <path d="m201.5,137.5c0,1 0,2 0,3c-1.72,0.13 -3.38,0.46 -5,1c-1.67,-0.67 -3.33,-1.33 -5,-2c3.59,0.35 6.92,-0.32 10,-2z" fill="#f1e491" id="svg_202"/>
  </g>
  <g id="svg_203">
   <path d="m219.5,137.5c2.34,2.47 3.84,5.47 4.5,9c1.16,8.92 0.16,17.59 -3,26c-0.67,0.75 -1.5,1.09 -2.5,1c-0.35,-4.72 -1.01,-9.38 -2,-14c1.22,-1.78 1.22,-3.45 0,-5c1.39,-5.59 2.39,-11.26 3,-17z" fill="#f7faf7" id="svg_204"/>
  </g>
  <g id="svg_205">
   <path d="m195.5,158.5c-1.25,-4.59 -2.25,-9.25 -3,-14c0.76,-1.76 2.1,-2.76 4,-3c1.62,-0.54 3.28,-0.87 5,-1c1.46,1.19 2.79,1.19 4,0c2.74,-2.69 6.07,-3.86 10,-3.5c-6.1,6.38 -11.6,13.21 -16.5,20.5c-1.01,0.84 -2.18,1.17 -3.5,1z" fill="#fefef6" id="svg_206"/>
  </g>
  <g id="svg_207">
   <path d="m205.5,136.5c0,1.33 0,2.67 0,4c-1.21,1.19 -2.54,1.19 -4,0c0,-1 0,-2 0,-3c1.04,-2.02 2.37,-2.35 4,-1z" fill="#f3d64d" id="svg_208"/>
  </g>
  <g id="svg_209">
   <path d="m191.5,139.5c-0.67,0 -1.33,0 -2,0c-0.29,-4.22 -0.95,-8.39 -2,-12.5c0.33,-0.5 0.67,-1 1,-1.5c2.02,4.43 3.02,9.09 3,14z" fill="#eee292" id="svg_210"/>
  </g>
  <g id="svg_211">
   <path d="m98.5,194.5c2.79,0.98 5.79,1.31 9,1c-3.19,1.31 -6.52,1.31 -10,0c0.12,-0.61 0.46,-0.94 1,-1z" fill="#a6c8df" id="svg_212"/>
  </g>
  <g id="svg_213">
   <path d="m139.5,188.5c0,2.33 0,4.67 0,7c8.85,-0.33 17.52,0.01 26,1c-9,0 -18,0 -27,0c-0.31,-2.88 0.03,-5.55 1,-8z" fill="#a0c0da" id="svg_214"/>
  </g>
 </g>
</svg>