<?xml version="1.0" standalone="yes"?>
<svg xmlns="http://www.w3.org/2000/svg" width="256" height="256">
<path style="fill:#fdfefb; stroke:none;" d="M0 0L0 256L256 256L256 0L0 0z"/>
<path style="fill:#efd657; stroke:none;" d="M35 188C34.6508 178.224 47.8357 182.89 51 178L36 180C42.8794 170.97 57.286 156.935 57 178L61 185L62 185L55 164L56 163L72 171L57 160C66.2585 156.987 73.6038 152.867 76 165L77 165C76.6049 154.974 79.8896 154.692 89 153L89 152C85.3176 152.03 79.3417 153.811 76.6034 150.667C74.1734 147.878 73.323 135.593 78.1481 134.592C82.41 133.708 92.0182 144.228 97 146L97 145L92 138C86.2275 137.157 81.6084 133.683 80 128L103 122.873L112.068 123.357L109 136C117.645 129.661 114.299 121.831 128 124L128 123C115.838 117.453 134.977 109.738 141 108L140 117L141 117L143 108L151 112L145 105C153.723 102.619 159.398 98.1628 168 103C166.956 98.9212 164.097 85.915 171.181 84.6312C175.56 83.8378 179.836 94.8641 181 98C189.764 94.4651 176.89 79.4422 172.625 75.6343C160.504 64.8129 141.672 61.1825 126 63.483C112.515 65.4626 105.869 79.8794 95.8156 86.3071C92.4431 88.4632 86.8398 86.8547 83 87.0401C77.3077 87.315 70.1911 89.6901 65.2276 92.4985C57.8191 96.6903 58.7256 108.941 53.4113 114.437C45.9972 122.105 34.2685 121.781 27.2207 132C17.4687 146.139 17.5208 162.183 25.4097 177C28.2799 182.391 28.7593 186.02 35 188z"/>
<path style="fill:#fdfefb; stroke:none;" d="M131 68L131 69C141.716 74.7126 153.568 80.9599 166 78C157.374 67.9373 143.103 68 131 68M129 70C130.602 79.303 135.14 84.7217 145 83L145 84L140 85L140 88L161 95L158 88L159 88L162 94L164 94C169.566 83.5489 167.488 78.0268 155 81L158 88C153.867 83.5867 151.066 82.0037 145 83L145 82L150 80L129 70M101 90C114.751 88.9148 118.834 83.4076 124 71C114.23 72.7415 104.58 80.7594 101 90M118 87C131.911 90.0141 130.859 81.9295 128 72C122.059 73.8579 119.84 81.5151 118 87z"/>
<path style="fill:#efd657; stroke:none;" d="M237 86L238 87L237 86M193 87L193 88L196 88L193 87z"/>
<path style="fill:#3e89ca; stroke:none;" d="M191 88L192 93L214 88L191 88z"/>
<path style="fill:#efd657; stroke:none;" d="M214.667 87.3333L215.333 87.6667L214.667 87.3333M233 87L235 89L233 87z"/>
<path style="fill:#3e89ca; stroke:none;" d="M234.667 87.3333L235.333 87.6667L234.667 87.3333z"/>
<path style="fill:#efd657; stroke:none;" d="M236 87L237 88L236 87z"/>
<path style="fill:#fdfefb; stroke:none;" d="M117 114L120 113C121.176 118.376 139.1 108.389 139.889 103.972C141.079 97.3094 134.044 86.9768 130 97C130.451 90.0961 123.713 82.7418 118.028 91.3171C114.728 96.2936 117 108.16 117 114z"/>
<path style="fill:#efd657; stroke:none;" d="M211 88L212 89L211 88M228 88L229 89L228 88z"/>
<path style="fill:#3e89ca; stroke:none;" d="M36 184L34 187C41.2974 192.997 59.0663 201.047 68.4715 194.972C72.4816 192.382 75.0797 185.81 77.8843 182C83.7921 173.975 90.5144 165.886 98 159.285C133.105 128.329 178.546 100.614 225 91L225 92C183.224 104.035 139.37 151.272 139 196C167.071 196 199.869 202.854 222.556 182.12C225.259 179.65 225.722 174.37 226.939 171C234.052 151.308 226.484 125.203 205 119L218 102C210.522 106.167 199.944 112.21 196 120C225.156 127.974 235.55 166.361 209.992 185.211C196.972 194.814 183.645 190.969 169 190.634C160.935 190.45 152.278 192 144 192C149.956 145.122 191.365 105.564 234 89C229.603 87.2844 224.419 89.4918 220 90.6296C208.824 93.5069 197.725 97.1469 187 101.399C154.87 114.138 123.245 130.455 97 153.289C88.531 160.658 80.8894 169.058 74.1296 178C71.0839 182.029 67.7854 189.442 62.9066 191.397C53.6245 195.116 43.9971 187.027 36 184z"/>
<path style="fill:#fdfefb; stroke:none;" d="M139 89C134.756 105.991 150.376 102.286 160 98L139 89z"/>
<path style="fill:#efd657; stroke:none;" d="M206 89L207 90L206 89M224 89L225 90L224 89z"/>
<path style="fill:#fdfefb; stroke:none;" d="M109 108C102.621 102.669 98.6375 88.7337 91.5941 100.976C90.6424 102.63 89.8061 104.274 89 106L113 116L109 108L116 114C116 108.395 118.165 97.0922 114.972 92.3179C112.826 89.1083 100.613 89.3578 100.828 94.1474C101.07 99.5482 107.916 102.272 109 108z"/>
<path style="fill:#efd657; stroke:none;" d="M191 90L192 91L191 90M202 90L203 91L202 90M220 90L221 91L220 90z"/>
<path style="fill:#fdfefb; stroke:none;" d="M71 97L88 105L94 93C86.3777 90.5905 76.6 90.5883 71 97z"/>
<path style="fill:#efd657; stroke:none;" d="M199 91L200 92L199 91z"/>
<path style="fill:#fdfefb; stroke:none;" d="M222 91L222 92L225 92L222 91z"/>
<path style="fill:#efd657; stroke:none;" d="M227 91L228 92L227 91M195 92L196 93L195 92M213 92L214 93L213 92M218 92L219 93L218 92M222 92L223 93L222 92M225 92L226 93L225 92M210 93L211 94L210 93M215 93L216 94L215 93M220 93L221 94L220 93M218 94L219 95L218 94M203 95L204 96L203 95M216 95L217 96L216 95M200 96L201 97L200 96M210 96L211 97L210 96M214 96L215 97L214 96M128 97L120 113L121 113L128 97M203 97L204 98L203 97M202 100L202 101L209 98L202 100M212 97L213 98L212 97M216 97L217 98L216 97M200 98L201 99L200 98M214 98L215 99L214 98z"/>
<path style="fill:#fdfefb; stroke:none;" d="M74 124C80.6106 121.938 84.4758 112.031 87 106L70.6181 100.133L74 124z"/>
<path style="fill:#efd657; stroke:none;" d="M197 99L198 100L197 99M189 100L190 101L189 100M200 100L201 101L200 100z"/>
<path style="fill:#3e89ca; stroke:none;" d="M201 100L202 101L201 100z"/>
<path style="fill:#efd657; stroke:none;" d="M211 100L212 101L211 100z"/>
<path style="fill:#fdfefb; stroke:none;" d="M73 124L67 101C55.2382 107.115 58.164 126.445 73 124z"/>
<path style="fill:#efd657; stroke:none;" d="M192 101L193 102L192 101M198 101L199 102L198 101z"/>
<path style="fill:#3e89ca; stroke:none;" d="M199.667 101.333L200.333 101.667L199.667 101.333z"/>
<path style="fill:#efd657; stroke:none;" d="M205 101L206 102L205 101M218 101L218 103L220 101L218 101M184 102L185 103L184 102M196 102L197 103L196 102z"/>
<path style="fill:#3e89ca; stroke:none;" d="M197.667 102.333L198.333 102.667L197.667 102.333z"/>
<path style="fill:#efd657; stroke:none;" d="M181 103L182 104L181 103M187 103L188 104L187 103M194 103L195 104L194 103z"/>
<path style="fill:#3e89ca; stroke:none;" d="M195.667 103.333L196.333 103.667L195.667 103.333z"/>
<path style="fill:#efd657; stroke:none;" d="M202 103L203 104L202 103M206 103L207 104L206 103M192 104L194 106L192 104z"/>
<path style="fill:#3e89ca; stroke:none;" d="M193.667 104.333L194.333 104.667L193.667 104.333z"/>
<path style="fill:#efd657; stroke:none;" d="M190 105L192 107L190 105z"/>
<path style="fill:#3e89ca; stroke:none;" d="M191.667 105.333L192.333 105.667L191.667 105.333z"/>
<path style="fill:#efd657; stroke:none;" d="M203 105L204 106L203 105M174 106L175 107L174 106M180 106L181 107L180 106z"/>
<path style="fill:#3e89ca; stroke:none;" d="M166 121L191 107C184.715 105.331 169.251 115.681 166 121z"/>
<path style="fill:#fdfefb; stroke:none;" d="M88 107C84.5043 112.928 78.592 119.918 79 127L112 119L88 107z"/>
<path style="fill:#efd657; stroke:none;" d="M178 107L179 108L178 107M200 107L201 108L200 107M184 108L185 109L184 108M208 108L209 109L208 108M182 109L183 110L182 109M165 110L166 111L165 110M196 110L197 111L196 110M163 111L164 112L163 111M169 111L170 112L169 111M190 111L191 112L190 111M161 112L162 113L161 112M167 112L168 113L167 112M177 112L178 113L177 112M181 112L182 113L181 112M165 113L166 114L165 113M208 113L209 114L208 113M163 114L164 115L163 114M186 114L187 115L186 114M191 114L192 115L191 114M200 114L201 115L200 114M207 114L208 115L207 114M161 115L162 116L161 115M172 115L173 116L172 115M185 115L186 116L185 115M199 115L200 116L199 115M153 116L154 117L153 116M159 116L160 117L159 116M175 116L176 117L175 116M151 117L152 118L151 117M149 118L150 119L149 118M172 118L173 119L172 118M186 118L187 119L186 118M205 118L206 119L205 118M147 119L148 120L147 119M180 119L181 120L180 119M185 119L186 120L185 119M207 119L208 120L207 119z"/>
<path style="fill:#fdfefb; stroke:none;" d="M51 125L53 121C37.7431 122.34 25.6479 137.139 25 152L28 151L26 156C29.6254 156.381 34.0225 158.562 35 154L36 154C37.085 157.086 45.9303 161.197 47.5424 156.593C49.024 152.361 41.1274 145.675 38 144L37 153L36 153L37 144L31 148C32.6477 145.396 34.4947 140.674 37.2986 139.194C45.4069 134.913 66.6472 136.381 70 126C62.3403 121.966 58.1911 118.357 51 125z"/>
<path style="fill:#efd657; stroke:none;" d="M165 120L166 121L165 120M169 120L170 121L169 120M184 120L185 121L184 120M198 120L199 121L198 120M209 120L210 121L209 120M150 121L151 122L150 121M148 122L149 123L148 122M203 122L204 123L203 122M140 123L141 124L140 123M205 123L206 124L205 123M138 124L139 125L138 124M207 124L208 125L207 124M50 125L40 138C44.7525 134.528 49.8186 131.39 50 125M143 125L144 126L143 125M157 125L158 126L157 125z"/>
<path style="fill:#3e89ca; stroke:none;" d="M142 139C149.581 138.429 157.524 130.848 162 125C154.052 125.88 146.488 132.681 142 139z"/>
<path style="fill:#efd657; stroke:none;" d="M216 125L217 126L216 125M161 126L162 127L161 126M188 126C188.476 130.533 191.627 137.897 188.5 141.889C184.003 147.629 171.249 143.407 167.722 147.528C164.25 151.584 168.516 166.899 161 168L160 173L167 190L168 190C167.438 185.649 164.575 179.305 165.777 175.055C167.759 168.049 184.967 167.17 191 166L170 191L195 169C197.907 184.659 185.629 186.728 173 191L173 192L216 181C212.038 176.642 205.12 182.86 200.279 179.958C197.314 178.18 195.121 169.666 200.148 169.103C205.051 168.553 211.065 174.868 216 176L216 175L200 166L201 162C214.114 160.855 214.686 160.548 218 174L219 174C218.538 163.395 213.807 148.35 221 139L221 138C216.267 140.983 217.226 147.278 214.95 151.996C212.031 158.047 206.247 160.077 200 161L218 138L218 137L203.285 137.008L193.433 139.303L188 126M210 126L211 127L210 126M217 126L218 127L217 126M133 127L134 128L133 127M218 127L219 128L218 127M138 128L139 129L138 128M153 128L154 129L153 128M157 129L158 130L157 129M220 129L221 130L220 129M128 130L129 131L128 130M135 130L136 131L135 130z"/>
<path style="fill:#fdfefb; stroke:none;" d="M40 141C41.9804 145.685 48.1202 156.928 54.6752 154.377C59.3577 152.555 62.818 144.731 66 141L56 157C73.6012 159.613 74 146.12 74 133L71 134C69.7596 128.241 44.8363 138.704 40 141z"/>
<path style="fill:#efd657; stroke:none;" d="M149 131L150 132L149 131M125 132L126 133L125 132M216 132L217 133L216 132M130 133L131 134L130 133M152 133L153 134L152 133M171 133L172 134L171 133M70 134L66 141L70 134M122 134L123 135L122 134M151 134L152 135L151 134M165 134L166 135L165 134M170 134L171 135L170 134M127 135L128 136L127 135M150 135L151 136L150 135M164 135L165 136L164 135M119 136L120 137L119 136M143 136L144 137L143 136z"/>
<path style="fill:#fdfefb; stroke:none;" d="M215 136L193.757 145.133L195 159C201.723 157.954 215.947 143.057 215 136z"/>
<path style="fill:#efd657; stroke:none;" d="M142 137L143 138L142 137M116 138L117 139L116 138M123 138L124 139L123 138M141 138L142 139L141 138z"/>
<path style="fill:#fdfefb; stroke:none;" d="M217 138L200 161C214.676 159.719 215.607 150.071 219 138L217 138z"/>
<path style="fill:#efd657; stroke:none;" d="M166 139L167 140L166 139z"/>
<path style="fill:#fdfefb; stroke:none;" d="M219 139L219 174C228.769 167.545 225.558 147.693 221 139L219 139z"/>
<path style="fill:#efd657; stroke:none;" d="M120 140L121 141L120 140M160 140L161 141L160 140M226 140L227 141L226 140M116 143L117 144L116 143M163 143L164 144L163 143M108 144L109 145L108 144z"/>
<path style="fill:#fdfefb; stroke:none;" d="M172 150L183 156L183 157L170 151C168.468 154.051 163.037 166.256 166.643 168.882C170.536 171.717 186.689 165.617 191 164L191 162L183 158L183 157L194 160C193.527 156.337 193.419 149.508 190.987 146.604C187.561 142.513 175.563 147.761 172 150z"/>
<path style="fill:#3e89ca; stroke:none;" d="M118 164C127.952 162.654 133.509 153.888 139 146C129.277 146.115 121.623 155.442 118 164z"/>
<path style="fill:#efd657; stroke:none;" d="M228 146L229 147L228 146M104 147L105 148L104 147M111 147L112 148L111 147M155 147L156 148L155 147M30 148L28 151L30 148M224.333 148.667L224.667 149.333L224.333 148.667M159 149L160 150L159 149M99 151L100 152L99 151M134 151L135 152L134 151M105 152L106 153L105 152M126 152L127 153L126 152M133 152L134 153L133 152M152 152L153 153L152 152M157 152L158 153L157 152M229 152L229 156L230 156L229 152M125 153L126 154L125 153M124 154L125 155L124 154M156 154L157 155L156 154z"/>
<path style="fill:#fdfefb; stroke:none;" d="M32 174L33 174L34 178C40.2326 174.299 47.0135 167.38 48 160L35 161C33.6525 157.964 25.6269 155.039 24.7222 160.028C24.0415 163.781 30.7338 180.364 32 174z"/>
<path style="fill:#efd657; stroke:none;" d="M129 157L130 158L129 157M229 157L229 161L230 161L229 157M98 158L99 159L98 158M97 159L98 160L97 159M120 159L121 160L120 159z"/>
<path style="fill:#fdfefb; stroke:none;" d="M201 162L200 166L217 176C217.854 172.056 217.758 161.287 212.772 159.788C209.406 158.775 204.43 161.493 201 162z"/>
<path style="fill:#efd657; stroke:none;" d="M96 160L97 161L96 160M34 161L33 174L34 174L34 161M95 161L96 162L95 161M126 161L127 162L126 161M94 162L95 163L94 162M93 163L94 164L93 163M119.667 163.333L120.333 163.667L119.667 163.333M122 163L122 164L125 164L122 163M224 163L225 164L224 163M92 164L93 165L92 164M151 164L152 165L151 164M91 165L92 166L91 165M159 165L161 168L159 165M90 166L91 167L90 166M145 166L146 167L145 166z"/>
<path style="fill:#fdfefb; stroke:none;" d="M168 190C176.391 187.645 188.232 174.143 191 166C185.215 166.747 167.962 167.898 165.643 174.133C164.036 178.454 167.148 185.605 168 190z"/>
<path style="fill:#efd657; stroke:none;" d="M228 166L229 167L228 166M223 167L224 168L223 167z"/>
<path style="fill:#fdfefb; stroke:none;" d="M216 176C212.406 174.684 209.323 172.699 206 170.816C199.377 167.061 193.594 171.413 198.318 178.682C201.661 183.828 213.293 179.977 216 176z"/>
<path style="fill:#efd657; stroke:none;" d="M149 169L150 170L149 169z"/>
<path style="fill:#fdfefb; stroke:none;" d="M172 192C184.573 187.123 198.927 185.493 195 169C186.291 171.444 175.747 183.954 172 192z"/>
<path style="fill:#efd657; stroke:none;" d="M227 169L228 170L227 169M222 170L223 171L222 170M79 171L80 172L79 171M143 171L144 172L143 171z"/>
<path style="fill:#3e89ca; stroke:none;" d="M99 196L109 196L119 172C107.807 172.04 100.827 185.753 99 196z"/>
<path style="fill:#efd657; stroke:none;" d="M221 172L222 173L221 172M226 172L227 173L226 172M110 173L111 174L110 173M118 173L119 174L118 173M158.667 173.333L159.333 173.667L158.667 173.333M83 174L84 175L83 174M142 174L143 175L142 174M147 174L148 175L147 174M156.667 174.333L157.333 174.667L156.667 174.333M225 174L226 175L225 174M82 175L83 176L82 175M117 175L118 176L117 175M154.667 175.333L155.333 175.667L154.667 175.333M75 176L76 177L75 176M224.333 176.667L224.667 177.333L224.333 176.667M215 177L216 178L215 177M146 178L147 179L146 178M79 179L80 180L79 179M72 180L73 181L72 180z"/>
<path style="fill:#fdfefb; stroke:none;" d="M214 180L176 191L176 192C186.26 192 196.534 192.929 206 188.19C209.423 186.476 214.091 184.17 214 180z"/>
<path style="fill:#efd657; stroke:none;" d="M224 180L225 181L224 180M105 181L106 182L105 181M114 181L115 182L114 181M140 182L141 183L140 182M145 182L146 183L145 182M76 183L77 184L76 183M104 183L105 184L104 183M219.667 183.333L220.333 183.667L219.667 183.333M74 186L75 187L74 186M42 187L43 188L42 187M139.333 187.667L139.667 188.333L139.333 187.667M44 188L45 189L44 188M144 188L145 189L144 188M213 188L214 189L213 188M46 189L47 190L46 189M72 189L73 190L72 189M212 189L213 190L212 189M49 190L50 191L49 190M110 190L111 191L110 190M200 190L201 191L200 190M40 191L41 192L40 191M53 191L54 192L53 191M196 191L197 192L196 191M42 192L43 193L42 192M207 192L208 193L207 192M44 193L45 194L44 193M109 193L110 194L109 193M47 194L48 195L47 194M69 194L70 195L69 194M202 194L203 195L202 194M50 195L51 196L50 195M98 195L99 196L98 195M198 195L199 196L198 195M56 196L56 197L68 197L56 196M99 196L99 197L108 197L99 196M139 196L139 197L166 197L139 196M172 196L172 197L194 197L172 196z"/>
</svg>
