<?xml version="1.0" encoding="UTF-8"?>
<svg version="1.1" xmlns="http://www.w3.org/2000/svg" width="533" height="334">
<path d="M0 0 C175.89 0 351.78 0 533 0 C533 110.22 533 220.44 533 334 C357.11 334 181.22 334 0 334 C0 223.78 0 113.56 0 0 Z " fill="#FDFEFD" transform="translate(0,0)"/>
<path d="M0 0 C0.99 0 1.98 0 3 0 C3.19835086 10.8912655 2.41527691 21.64698922 1.625 32.5 C0.62709739 46.62064416 -0.30805132 60.73917767 -1.0625 74.875 C-1.90238384 90.59383013 -2.9114024 106.29640054 -4 122 C-5.32 121.34 -6.64 120.68 -8 120 C-10.30693006 117.70159308 -12.54919625 115.33772156 -14.75 112.9375 C-15.98878906 111.59300781 -17.22757812 110.24851562 -18.50390625 108.86328125 C-21.26429496 105.81297462 -23.98359085 102.72548249 -26.6875 99.625 C-27.780625 98.42875 -28.87375 97.2325 -30 96 C-30.99 95.67 -31.98 95.34 -33 95 C-33.66 96.32 -34.32 97.64 -35 99 C-37.97574881 102.68637539 -40.97868378 106.35087781 -44 110 C-45.6396875 112.165625 -45.6396875 112.165625 -47.3125 114.375 C-51.3728322 119.46762004 -55.71703734 124.19083868 -60.1640625 128.9453125 C-62.28511041 131.22996741 -64.34619066 133.57055577 -66.375 135.9375 C-77.26671271 148.14372976 -89.22836293 158.8150236 -102 169 C-103.06863281 169.92941406 -104.13726562 170.85882813 -105.23828125 171.81640625 C-116.41258314 181.27336995 -128.45155217 189.49821054 -141 197 C-142.918125 198.3921875 -142.918125 198.3921875 -144.875 199.8125 C-145.90625 200.534375 -146.9375 201.25625 -148 202 C-150.31 202.99 -152.62 203.98 -155 205 C-155.66 205.66 -156.32 206.32 -157 207 C-160.33333333 208.33333333 -163.66666667 209.66666667 -167 211 C-172.56629595 213.72516573 -178.08454518 216.51562408 -183.5625 219.4140625 C-194.25106187 224.49727224 -205.66575055 227.668471 -217 231 C-233.48181137 235.29436053 -250.05208146 238.65995894 -266.98046875 240.55859375 C-282.65180271 241.70775711 -298.64835159 241.68159019 -314.32421875 240.5390625 C-322.5968598 239.49033097 -330.46732537 237.76229405 -338.4375 235.3125 C-344.04216547 233.29840105 -349.27973824 230.99135732 -354.5 228.125 C-360.41897333 224.36872847 -365.74177453 220.62723841 -371 216 C-375.625 211.3125 -375.625 211.3125 -380 206 C-384.40843239 199.2276256 -388.77614648 192.42887984 -392 185 C-391.505 184.01 -391.505 184.01 -391 183 C-389.1746875 185.289375 -389.1746875 185.289375 -387.3125 187.625 C-384.24591253 191.44712351 -381.13707254 195.23551296 -378 199 C-373.25308702 202.751777 -368.22380651 205.95195351 -363 209 C-356.35533643 212.16381098 -349.5122865 214.51881793 -342.5 216.75 C-333.84939135 218.71604742 -325.47905568 219.80728263 -316.640625 220.296875 C-303.94528751 220.59364912 -291.7731507 219.53147068 -279.25 217.625 C-274.14070138 216.83698872 -269.08244027 215.95949959 -264 215 C-261.525 214.01 -261.525 214.01 -259 213 C-256.36 213 -253.72 213 -251 213 C-251 212.34 -251 211.68 -251 211 C-249.515 210.62875 -248.03 210.2575 -246.5 209.875 C-232.51784496 205.84168605 -219.14025301 200.2285957 -206 194 C-203.15563269 192.52102995 -200.32140348 191.02232066 -197.5 189.5 C-195.355 188.345 -193.21 187.19 -191 186 C-190.34 186 -189.68 186 -189 186 C-189 185.34 -189 184.68 -189 184 C-187.35 183.67 -185.7 183.34 -184 183 C-184 182.34 -184 181.68 -184 181 C-180.39720868 178.56920104 -176.72324282 176.24195267 -173 174 C-170.525 173.01 -170.525 173.01 -168 172 C-166.68 170.68 -165.36 169.36 -164 168 C-160.38794239 165.25981837 -156.72013457 162.59155442 -153 160 C-150.525 159.01 -150.525 159.01 -148 158 C-147.67 157.01 -147.34 156.02 -147 155 C-144.50409263 152.95474257 -142.00349324 150.91503733 -139.484375 148.8984375 C-125.30189 137.10089953 -112.3801639 123.7618073 -100.375 109.77734375 C-85.21454903 91.59731676 -85.21454903 91.59731676 -72 72 C-72 70.68 -72 69.36 -72 68 C-79.9098419 65.33803398 -87.81258373 62.75257222 -95.8125 60.375 C-99.3703125 59.199375 -99.3703125 59.199375 -103 58 C-103.66 57.01 -104.32 56.02 -105 55 C-102.21101362 53.49502234 -99.41873301 51.99614793 -96.625 50.5 C-95.07039063 49.6646875 -93.51578125 48.829375 -91.9140625 47.96875 C-89.97660156 46.99421875 -89.97660156 46.99421875 -88 46 C-87.34 46 -86.68 46 -86 46 C-86 45.34 -86 44.68 -86 44 C-84.77152344 43.46890625 -83.54304688 42.9378125 -82.27734375 42.390625 C-74.09654571 38.68474165 -66.13614383 34.54876517 -58.12890625 30.484375 C-56.43636719 29.66453125 -54.74382812 28.8446875 -53 28 C-52.34 28 -51.68 28 -51 28 C-51 27.34 -51 26.68 -51 26 C-49.411875 25.29875 -47.82375 24.5975 -46.1875 23.875 C-40.30634512 21.14234218 -34.68552351 18.11350097 -29 15 C-26.69 14.01 -24.38 13.02 -22 12 C-17.5788266 9.93410625 -13.17259396 7.83818493 -8.765625 5.7421875 C-5 4 -5 4 -2 3 C-2 2.34 -2 1.68 -2 1 C-1.34 0.67 -0.68 0.34 0 0 Z " fill="#F7C313" transform="translate(443,56)"/>
<path d="M0 0 C2.206875 0.1753125 4.41375 0.350625 6.6875 0.53125 C12.06640625 2.38671875 12.06640625 2.38671875 16.6875 4.53125 C19.33172684 5.4732716 21.97746541 6.41106523 24.625 7.34375 C29.70550007 9.24416262 33.88535465 11.2247448 38.625 13.96875 C45.48108491 18.79340234 51.75323701 23.59698701 57.6875 29.53125 C59.59577478 31.81636895 61.46946968 34.13069087 63.3125 36.46875 C64.25351562 37.65339844 65.19453125 38.83804688 66.1640625 40.05859375 C68.6875 43.53125 68.6875 43.53125 71.6875 49.53125 C71.3575 50.52125 71.0275 51.51125 70.6875 52.53125 C64.8125 55.78125 64.8125 55.78125 58.6875 58.53125 C57.6975 58.20125 56.7075 57.87125 55.6875 57.53125 C53.34474209 54.20453376 51.01327449 50.86986177 48.6875 47.53125 C44.48775353 42.32779531 44.48775353 42.32779531 39.6875 37.53125 C36.0838232 34.78005588 32.42487399 32.09788033 28.6875 29.53125 C26.7075 28.04625 26.7075 28.04625 24.6875 26.53125 C18.17650039 23.76061187 11.77266136 21.5541174 4.9375 19.71875 C-0.44210133 18.8376084 -5.28139056 18.24199797 -10.6875 18.09375 C-15.11689877 18.17808125 -19.23432366 18.51735357 -23.59765625 19.29296875 C-29.35075555 20.66223886 -34.95449332 22.41191444 -40.5625 24.28125 C-45.64123663 26.57903899 -45.64123663 26.57903899 -51.375 30.28125 C-56.7895511 34.15692868 -61.60786062 37.82661062 -66.3125 42.53125 C-69.97883518 47.0066684 -73.26464607 51.61357779 -76.3125 56.53125 C-78.86034646 61.46770251 -81.09872721 66.42994748 -83.3125 71.53125 C-84.6325 71.20125 -85.9525 70.87125 -87.3125 70.53125 C-88.653125 69.603125 -89.99375 68.675 -91.375 67.71875 C-96.18559439 64.47961021 -96.18559439 64.47961021 -101.125 62.15625 C-103.166875 61.62 -105.20875 61.08375 -107.3125 60.53125 C-114.01876716 60.04874573 -120.61326485 59.93444815 -127.3125 60.53125 C-132.04209609 61.76025951 -132.04209609 61.76025951 -136.3125 63.53125 C-142.01413645 66.63681307 -142.01413645 66.63681307 -147.3125 70.53125 C-149.16875 72.2946875 -149.16875 72.2946875 -151.0625 74.09375 C-153.86323471 77.91783009 -156.02413521 81.52339885 -158.1875 85.71875 C-159.21875 87.966875 -160.25 90.215 -161.3125 92.53125 C-162.31509024 97.54420121 -162.63203612 102.24150851 -162.875 107.34375 C-163.00068359 109.92123047 -163.00068359 109.92123047 -163.12890625 112.55078125 C-163.18949219 113.86433594 -163.25007813 115.17789063 -163.3125 116.53125 C-165.36017578 116.76908203 -165.36017578 116.76908203 -167.44921875 117.01171875 C-173.09995717 117.73148205 -178.7029944 118.538523 -184.3125 119.53125 C-191.34058513 121.57887725 -191.34058513 121.57887725 -197.3125 124.53125 C-202.52782497 127.58276993 -207.34265258 130.78399051 -212.125 134.46875 C-215.36656944 137.49219516 -215.36656944 137.49219516 -218.25 140.90625 C-221.78652601 146.24712601 -224.75417361 151.67718532 -227.54296875 157.44140625 C-229.55585266 161.87878875 -229.55585266 161.87878875 -231.3125 168.15625 C-232.41988911 174.58197949 -232.41988911 174.58197949 -232.75 181.34375 C-232.42532101 186.67776204 -231.94757142 191.24545861 -230.8125 196.40625 C-229.61411777 200.86858964 -228.17341275 204.83186635 -226.23046875 209.03125 C-224.79875941 211.8395065 -223.33268721 214.63065516 -221.82421875 217.3984375 C-221.32535156 218.43226563 -220.82648438 219.46609375 -220.3125 220.53125 C-220.6425 221.19125 -220.9725 221.85125 -221.3125 222.53125 C-225.41652645 218.93446277 -229.42814769 215.35719099 -233.3125 211.53125 C-237.25 206.53125 -237.25 206.53125 -240.3125 201.53125 C-243.0625 196.28125 -243.0625 196.28125 -245.3125 190.53125 C-247.125 183.71875 -247.125 183.71875 -248.3125 176.53125 C-248.75 169.46875 -248.75 169.46875 -248.3125 162.53125 C-246.75 155.96875 -246.75 155.96875 -244.3125 149.53125 C-241.0625 142.84375 -241.0625 142.84375 -237.3125 136.53125 C-233.59069908 131.50977256 -229.67991526 126.92829553 -225.4375 122.34375 C-221.3125 118.53125 -221.3125 118.53125 -216.8125 115.03125 C-209.88710357 110.62417954 -202.8214707 106.84864601 -195.3125 103.53125 C-189.0625 101.53125 -189.0625 101.53125 -184.3125 100.53125 C-182.9925 100.53125 -181.6725 100.53125 -180.3125 100.53125 C-180.3125 97.89125 -180.3125 95.25125 -180.3125 92.53125 C-178.25331716 86.00069872 -175.96816703 79.85983845 -172.9375 73.71875 C-169.97673802 68.9956297 -166.95479004 64.76100618 -163.3125 60.53125 C-158.35983985 56.15448056 -153.45642721 52.25627429 -147.875 48.71875 C-142.47417073 46.12931131 -137.03931261 44.27419297 -131.3125 42.53125 C-126.3125 41.53125 -126.3125 41.53125 -122.52734375 41.328125 C-118.10500603 41.27966103 -113.72983209 41.30269937 -109.3125 41.53125 C-102.6875 42.90625 -102.6875 42.90625 -97.3125 44.53125 C-95.0025 45.19125 -92.6925 45.85125 -90.3125 46.53125 C-89.6525 44.88125 -88.9925 43.23125 -88.3125 41.53125 C-84.34731378 36.22073274 -80.12783912 31.33181625 -75.625 26.46875 C-71.72897195 22.84773569 -68.11233201 19.77056967 -63.8125 16.71875 C-56.18538611 11.80512855 -48.63674029 8.09878155 -40.3125 4.53125 C-26.74938214 0.6401916 -14.08508985 0.06019269 0 0 Z " fill="#106BAB" transform="translate(299.3125,29.46875)"/>
<path d="M0 0 C1.98 0.99 1.98 0.99 4 2 C7.1875 4.75 7.1875 4.75 11 9 C15.25968303 15.02785334 19.01707095 21.32455276 22.75 27.6875 C25.41093114 33.97025408 27.40442298 40.1672781 29.046875 46.7890625 C30.02972909 52.16253527 30.45091044 57.22758241 30.5625 62.6875 C30.42876241 67.71751929 30.08283189 72.4968403 29.265625 77.4609375 C27.84760579 83.56306933 25.85956335 89.3795585 23.6875 95.25 C20.77197442 101.48786868 17.75455869 107.21917154 14 113 C8.89428515 119.20906848 3.31524597 124.77483937 -2.5625 130.25 C-8.79446436 134.54790645 -15.19576924 137.77782321 -22.0234375 141.01953125 C-27 143 -27 143 -32.2333374 144.60249329 C-39 146 -39 146 -42.85129547 146.26898766 C-47.31807497 146.36754323 -51.7753914 146.37118117 -56.24316406 146.34057617 C-58.7768441 146.34123329 -58.7768441 146.34123329 -61.36170959 146.34190369 C-66.91313464 146.3398232 -72.46425308 146.31652566 -78.015625 146.29296875 C-81.87717524 146.2873702 -85.73872762 146.28310133 -89.60028076 146.28010559 C-99.74031506 146.26867736 -109.88021948 146.23922706 -120.02020264 146.20599365 C-130.3767318 146.17524947 -140.73328205 146.16159093 -151.08984375 146.14648438 C-171.39328608 146.11435584 -191.69663222 146.06318357 -212 146 C-211.505 145.01 -211.505 145.01 -211 144 C-208.01095968 142.96770257 -205.00779811 141.97629429 -202 141 C-197.86212778 139.34431442 -193.73764326 137.65489531 -189.625 135.9375 C-187.51351563 135.05964844 -185.40203125 134.18179688 -183.2265625 133.27734375 C-180.63941406 132.15005859 -180.63941406 132.15005859 -178 131 C-177.01 130.34 -176.02 129.68 -175 129 C-171.02780818 128.80080142 -167.04870936 128.73636126 -163.0715332 128.72875977 C-159.27532219 128.71347984 -159.27532219 128.71347984 -155.40242004 128.69789124 C-154.04254282 128.69695024 -152.6826656 128.69600925 -151.28157997 128.69503975 C-147.02162523 128.69138121 -142.7619044 128.67466376 -138.5019989 128.65428162 C-126.38703789 128.59885032 -114.27204096 128.5683154 -102.15698242 128.54370117 C-94.74880562 128.52774194 -87.34079135 128.49742401 -79.9326992 128.45893669 C-77.11857022 128.44734781 -74.30441202 128.44135688 -71.49025917 128.44125557 C-53.93126046 128.55988907 -53.93126046 128.55988907 -36.51635742 126.64428711 C-33.2907605 125.83036499 -33.2907605 125.83036499 -30 125 C-24.0704241 122.41777668 -24.0704241 122.41777668 -19 119 C-14.40780972 115.693623 -10.19001639 112.16662976 -5.9375 108.4375 C-1.67073807 103.86304483 -1.67073807 103.86304483 2.1875 97.4375 C4.7089155 92.7278738 6.85736521 88.03520473 9 83.125 C10.24862598 79.31802088 10.24862598 79.31802088 11 75 C11.61054592 66.93863266 11.59303264 59.06188715 11 51 C10.2265625 47.4421875 10.2265625 47.4421875 9.4375 43.8125 C6.67780242 37.23168269 3.56217467 31.18339754 0 25 C-0.33 24.67 -0.66 24.34 -1 24 C-1.14484199 15.88884881 -1.12952037 8.04783262 0 0 Z " fill="#0E6AAA" transform="translate(452,149)"/>
<path d="M0 0 C0.33 1.32 0.66 2.64 1 4 C0.71971532 8.00406688 0.3907952 12.00520461 0 16 C-0.33 16 -0.66 16 -1 16 C-1.33 19.63 -1.66 23.26 -2 27 C-2.33 27 -2.66 27 -3 27 C-3.14134926 22.3354745 -3.11196776 17.66532325 -3 13 C-2.11362808 8.64200475 -1.14588284 4.29706066 0 0 Z " fill="#A7CFE2" transform="translate(69,191)"/>
</svg>
